<svg width="78" height="54" viewBox="0 0 78 54" fill="none" xmlns="http://www.w3.org/2000/svg">
<path fill-rule="evenodd" clip-rule="evenodd" d="M14.3166 28.8828L21.4521 35.1009C23.7967 37.4455 25.8354 39.1784 28.078 41.7268C29.1993 42.9501 30.3206 43.9694 31.4419 45.1927C31.9516 45.7024 34.0923 48.0469 34.5 48.8624C35.4175 50.9011 34.0923 52.736 32.4613 53.2457C29.709 53.9593 27.5683 50.3915 24.918 47.5372C23.7967 46.314 22.6754 45.2946 21.5541 44.1733L11.1565 34.4893C9.32166 32.9603 1.26865 26.1305 0.657028 24.7034C-1.17783 20.524 3.71513 18.893 6.36549 17.5678C15.0301 13.1845 20.127 11.1458 27.5683 5.3354C28.8935 4.31604 30.2187 3.09279 31.2381 2.07342C34.8059 -1.39243 38.6795 2.68504 36.3349 5.94702C33.8884 9.31094 25.2238 15.1213 20.7386 17.4659C18.8018 18.4852 13.0933 20.9317 11.7681 22.155C16.6611 22.2569 23.1851 22.9705 28.078 23.684C37.864 25.1111 52.1351 25.5189 62.2269 25.315C65.183 25.2131 68.1392 25.2131 71.1973 25.2131C74.0515 25.1111 76.5999 24.4995 77.6193 27.0479C78.2309 28.4751 77.7212 29.6983 76.9057 30.4119C75.3767 31.9409 67.0179 31.6351 64.7753 31.6351C52.1351 31.839 42.9608 31.737 30.4226 30.3099C27.6703 30.0041 15.8456 28.1692 14.3166 28.8828Z" fill="white"/>
</svg>
