<svg width="78" height="54" viewBox="0 0 78 54" fill="none" xmlns="http://www.w3.org/2000/svg">
<path fill-rule="evenodd" clip-rule="evenodd" d="M63.6834 28.8828L56.5479 35.1009C54.2033 37.4455 52.1646 39.1784 49.922 41.7268C48.8007 42.9501 47.6794 43.9694 46.5581 45.1927C46.0484 45.7024 43.9077 48.0469 43.5 48.8624C42.5825 50.9011 43.9077 52.736 45.5387 53.2457C48.291 53.9593 50.4317 50.3915 53.082 47.5372C54.2033 46.314 55.3246 45.2946 56.4459 44.1733L66.8435 34.4893C68.6783 32.9603 76.7314 26.1305 77.343 24.7034C79.1778 20.524 74.2849 18.893 71.6345 17.5678C62.9699 13.1845 57.873 11.1458 50.4317 5.3354C49.1065 4.31604 47.7813 3.09279 46.7619 2.07342C43.1941 -1.39243 39.3205 2.68504 41.6651 5.94702C44.1116 9.31094 52.7762 15.1213 57.2614 17.4659C59.1982 18.4852 64.9067 20.9317 66.2319 22.155C61.3389 22.2569 54.8149 22.9705 49.922 23.684C40.136 25.1111 25.8649 25.5189 15.7731 25.315C12.817 25.2131 9.86081 25.2131 6.80271 25.2131C3.94848 25.1111 1.40006 24.4995 0.380693 27.0479C-0.230928 28.4751 0.278756 29.6983 1.09425 30.4119C2.6233 31.9409 10.9821 31.6351 13.2247 31.6351C25.8649 31.839 35.0392 31.737 47.5774 30.3099C50.3297 30.0041 62.1544 28.1692 63.6834 28.8828Z" fill="white"/>
</svg>
