<svg width="1438" height="391" viewBox="0 0 1438 391" fill="none" xmlns="http://www.w3.org/2000/svg">
<g clip-path="url(#clip0_122_375)">
<path d="M94.4395 481.516C66.4609 481.516 43.9023 472.8 26.7637 455.368C9.77148 437.937 1.27539 413.547 1.27539 382.199V203.781C1.27539 166.281 8.67285 137.57 23.4678 117.648C38.4092 97.7266 62.6523 87.7656 96.1973 87.7656C114.508 87.7656 130.768 91.1348 144.977 97.873C159.332 104.611 170.611 114.719 178.814 128.195C187.018 141.525 191.119 158.371 191.119 178.732V245.529H114.215V188.4C114.215 176.828 112.75 169.064 109.82 165.109C106.891 161.008 102.35 158.957 96.1973 158.957C89.0195 158.957 84.1855 161.594 81.6953 166.867C79.2051 171.994 77.96 178.879 77.96 187.521V381.101C77.96 391.794 79.498 399.338 82.5742 403.732C85.7969 408.127 90.3379 410.324 96.1973 410.324C102.789 410.324 107.403 407.614 110.04 402.194C112.823 396.774 114.215 389.743 114.215 381.101V311.447H191.998V384.616C191.998 418.601 183.429 443.283 166.29 458.664C149.151 473.898 125.201 481.516 94.4395 481.516Z" fill="#F6F6F6"/>
<path d="M94.4395 78.5156C66.4609 78.5156 43.9023 69.7998 26.7637 52.3682C9.77148 34.9365 1.27539 10.5469 1.27539 -20.8008V-199.219C1.27539 -236.719 8.67285 -265.43 23.4678 -285.352C38.4092 -305.273 62.6523 -315.234 96.1973 -315.234C114.508 -315.234 130.768 -311.865 144.977 -305.127C159.332 -298.389 170.611 -288.281 178.814 -274.805C187.018 -261.475 191.119 -244.629 191.119 -224.268V-157.471H114.215V-214.6C114.215 -226.172 112.75 -233.936 109.82 -237.891C106.891 -241.992 102.35 -244.043 96.1973 -244.043C89.0195 -244.043 84.1855 -241.406 81.6953 -236.133C79.2051 -231.006 77.96 -224.121 77.96 -215.479V-21.8994C77.96 -11.2061 79.498 -3.66211 82.5742 0.732422C85.7969 5.12695 90.3379 7.32422 96.1973 7.32422C102.789 7.32422 107.403 4.61426 110.04 -0.805664C112.823 -6.22559 114.215 -13.2568 114.215 -21.8994V-91.5527H191.998V-18.3838C191.998 15.6006 183.429 40.2832 166.29 55.6641C149.151 70.8984 125.201 78.5156 94.4395 78.5156Z" fill="#F6F6F6"/>
<path d="M310.5 327.516C279.592 327.516 255.935 318.214 239.528 299.61C223.269 280.86 215.139 253.834 215.139 218.531V34.8398C215.139 1.73438 223.195 -23.3877 239.309 -40.5264C255.568 -57.665 279.299 -66.2344 310.5 -66.2344C341.701 -66.2344 365.358 -57.665 381.472 -40.5264C397.731 -23.3877 405.861 1.73438 405.861 34.8398V218.531C405.861 253.834 397.658 280.86 381.252 299.61C364.992 318.214 341.408 327.516 310.5 327.516ZM311.159 256.324C322.878 256.324 328.737 244.972 328.737 222.267V33.5215C328.737 14.4785 323.024 4.95703 311.599 4.95703C298.708 4.95703 292.263 14.6982 292.263 34.1807V222.706C292.263 234.718 293.728 243.36 296.657 248.634C299.587 253.761 304.421 256.324 311.159 256.324Z" fill="#F6F6F6"/>
<path d="M310.5 731.516C279.592 731.516 255.935 722.214 239.528 703.61C223.269 684.86 215.139 657.834 215.139 622.531V438.84C215.139 405.734 223.195 380.612 239.309 363.474C255.568 346.335 279.299 337.766 310.5 337.766C341.701 337.766 365.358 346.335 381.472 363.474C397.731 380.612 405.861 405.734 405.861 438.84V622.531C405.861 657.834 397.658 684.86 381.252 703.61C364.992 722.214 341.408 731.516 310.5 731.516ZM311.159 660.324C322.878 660.324 328.737 648.972 328.737 626.267V437.521C328.737 418.479 323.024 408.957 311.599 408.957C298.708 408.957 292.263 418.698 292.263 438.181V626.706C292.263 638.718 293.728 647.36 296.657 652.634C299.587 657.761 304.421 660.324 311.159 660.324Z" fill="#F6F6F6"/>
<path d="M437.578 479V92.2812H517.119L552.715 277.511V92.2812H627.422V479H551.836L513.164 285.641V479H437.578Z" fill="#F6F6F6"/>
<path d="M437.578 76V-310.719H517.119L552.715 -125.489V-310.719H627.422V76H551.836L513.164 -117.359V76H437.578Z" fill="#F6F6F6"/>
<path d="M695.328 386V73.5488H649.405V-0.71875H818.595V73.5488H772.672V386H695.328Z" fill="#F6F6F6"/>
<path d="M829.888 324L867.241 -62.7188H998.418L1035.11 324H961.943L956.45 261.598H909.868L905.034 324H829.888ZM915.361 199.854H950.518L933.599 3.19922H930.083L915.361 199.854Z" fill="#F6F6F6"/>
<path d="M829.888 727L867.241 340.281H998.418L1035.11 727H961.943L956.45 664.598H909.868L905.034 727H829.888ZM915.361 602.854H950.518L933.599 406.199H930.083L915.361 602.854Z" fill="#F6F6F6"/>
<path d="M1149.44 486.516C1121.46 486.516 1098.9 477.8 1081.76 460.368C1064.77 442.937 1056.28 418.547 1056.28 387.199V208.781C1056.28 171.281 1063.67 142.57 1078.47 122.648C1093.41 102.727 1117.65 92.7656 1151.2 92.7656C1169.51 92.7656 1185.77 96.1348 1199.98 102.873C1214.33 109.611 1225.61 119.719 1233.81 133.195C1242.02 146.525 1246.12 163.371 1246.12 183.732V250.529H1169.21V193.4C1169.21 181.828 1167.75 174.064 1164.82 170.109C1161.89 166.008 1157.35 163.957 1151.2 163.957C1144.02 163.957 1139.19 166.594 1136.7 171.867C1134.21 176.994 1132.96 183.879 1132.96 192.521V386.101C1132.96 396.794 1134.5 404.338 1137.57 408.732C1140.8 413.127 1145.34 415.324 1151.2 415.324C1157.79 415.324 1162.4 412.614 1165.04 407.194C1167.82 401.774 1169.21 394.743 1169.21 386.101V316.447H1247V389.616C1247 423.601 1238.43 448.283 1221.29 463.664C1204.15 478.898 1180.2 486.516 1149.44 486.516Z" fill="#F6F6F6"/>
<path d="M1149.44 83.5156C1121.46 83.5156 1098.9 74.7998 1081.76 57.3682C1064.77 39.9365 1056.28 15.5469 1056.28 -15.8008V-194.219C1056.28 -231.719 1063.67 -260.43 1078.47 -280.352C1093.41 -300.273 1117.65 -310.234 1151.2 -310.234C1169.51 -310.234 1185.77 -306.865 1199.98 -300.127C1214.33 -293.389 1225.61 -283.281 1233.81 -269.805C1242.02 -256.475 1246.12 -239.629 1246.12 -219.268V-152.471H1169.21V-209.6C1169.21 -221.172 1167.75 -228.936 1164.82 -232.891C1161.89 -236.992 1157.35 -239.043 1151.2 -239.043C1144.02 -239.043 1139.19 -236.406 1136.7 -231.133C1134.21 -226.006 1132.96 -219.121 1132.96 -210.479V-16.8994C1132.96 -6.20605 1134.5 1.33789 1137.57 5.73242C1140.8 10.127 1145.34 12.3242 1151.2 12.3242C1157.79 12.3242 1162.4 9.61426 1165.04 4.19434C1167.82 -1.22559 1169.21 -8.25684 1169.21 -16.8994V-86.5527H1247V-13.3838C1247 20.6006 1238.43 45.2832 1221.29 60.6641C1204.15 75.8984 1180.2 83.5156 1149.44 83.5156Z" fill="#F6F6F6"/>
<path d="M1310.33 324V11.5488H1264.41V-62.7188H1433.59V11.5488H1387.67V324H1310.33Z" fill="#F6F6F6"/>
<path d="M1310.33 727V414.549H1264.41V340.281H1433.59V414.549H1387.67V727H1310.33Z" fill="#F6F6F6"/>
</g>
<defs>
<clipPath id="clip0_122_375">
<rect width="1438" height="392" fill="white" transform="translate(0 -1)"/>
</clipPath>
</defs>
</svg>
