<svg width="196" height="47" viewBox="0 0 196 47" fill="none" xmlns="http://www.w3.org/2000/svg">
<g clip-path="url(#clip0_108_1123)">
<path d="M72.6096 5.10831C73.3997 2.11204 76.1081 0.0263672 79.2014 0.0263672H92.4821V30.8427H85.8434V8.04766L87.2194 6.67172H79.8274C79.3286 6.67172 78.8265 6.91946 78.6992 7.41828L72.69 30.8461H65.7969L72.5996 5.10831H72.6096Z" fill="#F6F6F6"/>
<path d="M145.311 5.10886C146.101 2.11594 148.809 0.0302734 151.906 0.0302734H165.186V30.8466H158.548V8.04822L159.924 6.67228H152.532C152.033 6.67228 151.531 6.92002 151.404 7.41884L145.394 30.8466H138.501L145.304 5.10886H145.311Z" fill="#F6F6F6"/>
<path d="M189.174 5.10886C188.384 2.11594 185.675 0.0302734 182.579 0.0302734H169.298V30.8466H175.937V8.04822L174.561 6.67228H181.952C182.451 6.67228 182.953 6.92002 183.081 7.41884L189.09 30.8466H195.983L189.18 5.10886H189.174Z" fill="#F6F6F6"/>
<path d="M68.0129 6.61816H53.0885C53.5471 7.0768 54.0091 7.53545 54.4678 7.9941V13.2099H63.2557V19.8017H54.4678V30.7892H47.876V0.0263672H68.0765L68.0129 6.61816Z" fill="#F6F6F6"/>
<path d="M54.5519 40.2844L51.944 43.9134H51.6795L49.1017 40.2844V46.1731H47.873V38.5H49.2992L51.8301 42.0955L54.351 38.5H55.7772V46.1731H54.5485V40.2844H54.5519Z" fill="#F6F6F6"/>
<path d="M64.8259 44.5492H60.6713L59.9482 46.1595H58.6426L62.0841 38.4863H63.4199L66.8614 46.1595H65.5558L64.8226 44.5492H64.8259ZM62.7537 39.7786L61.13 43.431H64.374L62.7503 39.7786H62.7537Z" fill="#F6F6F6"/>
<path d="M76.3495 46.1602H74.9133L72.5799 43.5087H70.9562V46.1602H69.7275V38.4736C70.1226 38.4736 70.7185 38.4736 71.5153 38.4803C72.312 38.4837 72.9079 38.487 73.303 38.487C74.15 38.487 74.8128 38.7348 75.2916 39.2269C75.7703 39.719 76.008 40.3116 76.008 40.9979C76.008 41.6038 75.8372 42.1294 75.4991 42.5713C75.1576 43.0132 74.6354 43.2844 73.9257 43.3882L76.2155 45.9425L76.3461 46.1635L76.3495 46.1602ZM70.9562 39.6052V42.3905H73.2929C73.775 42.3905 74.1399 42.26 74.3877 41.9955C74.6354 41.731 74.7593 41.4063 74.7593 41.0213C74.7593 40.6363 74.6354 40.3116 74.3877 40.0304C74.1399 39.7491 73.7784 39.6085 73.303 39.6085H70.9562V39.6052Z" fill="#F6F6F6"/>
<path d="M85.3084 38.5304L81.7899 42.1929L85.6164 46.0864V46.1634H84.0798L80.6583 42.6649V46.1634H79.4297V38.4902H80.6583V41.8012L83.7818 38.4902H85.3051V38.5338L85.3084 38.5304Z" fill="#F6F6F6"/>
<path d="M94.0057 46.1595H88.3379V38.4863H93.9722V39.6815H89.5632V41.7538H93.7948V42.8954H89.5632V44.9576H94.0023V46.1628L94.0057 46.1595Z" fill="#F6F6F6"/>
<path d="M99.1244 39.5944H96.6035V38.4863H102.874V39.5944H100.363V46.1628H99.1244V39.5944Z" fill="#F6F6F6"/>
<path d="M105.823 46.1595V38.4863H107.038V46.1595H105.823Z" fill="#F6F6F6"/>
<path d="M116.064 43.9466V38.4863H117.293V46.1595H116.362L112.01 40.7427V46.1595H110.771V38.4863H111.716L116.068 43.9466H116.064Z" fill="#F6F6F6"/>
<path d="M126.656 40.251C126.392 39.9865 126.074 39.7857 125.696 39.6417C125.321 39.4978 124.949 39.4274 124.584 39.4274C123.714 39.4274 123.024 39.712 122.512 40.2811C122 40.8503 121.749 41.5566 121.755 42.3969C121.755 43.1703 121.993 43.8264 122.468 44.3587C122.944 44.891 123.65 45.1589 124.584 45.1589C125.294 45.1589 125.917 44.9312 126.459 44.4793V42.9225H124.32V41.8278H127.597V44.9747C126.787 45.8652 125.783 46.3105 124.581 46.3105C123.901 46.3105 123.295 46.2034 122.766 45.9858C122.237 45.7682 121.816 45.4769 121.501 45.1086C121.186 44.7404 120.949 44.3253 120.788 43.87C120.627 43.4147 120.547 42.9225 120.547 42.3969C120.547 41.2353 120.905 40.2611 121.621 39.4743C122.338 38.6876 123.325 38.2959 124.581 38.2959C125.692 38.2959 126.64 38.6842 127.42 39.4576L126.653 40.2477L126.656 40.251Z" fill="#F6F6F6"/>
<path d="M140.319 44.5492H136.164L135.441 46.1595H134.136L137.577 38.4863H138.913L142.355 46.1595H141.049L140.316 44.5492H140.319ZM138.247 39.7786L136.623 43.431H139.867L138.243 39.7786H138.247Z" fill="#F6F6F6"/>
<path d="M150.56 40.251C150.295 39.9865 149.977 39.7857 149.599 39.6417C149.224 39.4978 148.853 39.4274 148.488 39.4274C147.617 39.4274 146.928 39.712 146.415 40.2811C145.903 40.8503 145.652 41.5566 145.659 42.3969C145.659 43.1703 145.896 43.8264 146.372 44.3587C146.847 44.891 147.554 45.1589 148.488 45.1589C149.197 45.1589 149.82 44.9312 150.362 44.4793V42.9225H148.223V41.8278H151.501V44.9747C150.69 45.8652 149.686 46.3105 148.484 46.3105C147.805 46.3105 147.199 46.2034 146.67 45.9858C146.141 45.7682 145.719 45.4769 145.404 45.1086C145.09 44.7404 144.852 44.3253 144.691 43.87C144.531 43.4147 144.45 42.9225 144.45 42.3969C144.45 41.2353 144.808 40.2611 145.525 39.4743C146.241 38.6876 147.229 38.2959 148.484 38.2959C149.596 38.2959 150.543 38.6842 151.323 39.4576L150.557 40.2477L150.56 40.251Z" fill="#F6F6F6"/>
<path d="M160.539 46.1595H154.871V38.4863H160.505V39.6815H156.096V41.7538H160.328V42.8954H156.096V44.9576H160.536V46.1628L160.539 46.1595Z" fill="#F6F6F6"/>
<path d="M169.214 43.9466V38.4863H170.442V46.1595H169.512L165.16 40.7427V46.1595H163.921V38.4863H164.865L169.217 43.9466H169.214Z" fill="#F6F6F6"/>
<path d="M180.626 45.176C179.859 45.936 178.899 46.3176 177.744 46.3176C177.071 46.3176 176.472 46.2071 175.946 45.9895C175.42 45.7686 174.995 45.474 174.674 45.1024C174.352 44.7308 174.108 44.3123 173.944 43.8537C173.78 43.3917 173.696 42.9029 173.696 42.384C173.696 41.8651 173.78 41.3696 173.947 40.8976C174.115 40.4255 174.359 39.997 174.68 39.6154C175.002 39.2304 175.427 38.9257 175.959 38.7014C176.488 38.4738 177.084 38.3633 177.74 38.3633C178.835 38.3633 179.772 38.7516 180.546 39.525L179.722 40.315C179.19 39.7894 178.527 39.525 177.737 39.525C176.823 39.525 176.123 39.8062 175.631 40.3686C175.142 40.931 174.901 41.6006 174.908 42.3739C174.915 43.1473 175.156 43.8068 175.631 44.3525C176.107 44.8982 176.81 45.1693 177.737 45.1693C178.102 45.1693 178.467 45.0957 178.832 44.9517C179.197 44.8044 179.511 44.6002 179.776 44.3391L180.619 45.1827L180.626 45.176Z" fill="#F6F6F6"/>
<path d="M186.385 41.8743L188.567 38.4863H190.047V38.5399L187.001 43.0125V46.1595H185.772V43.0125L182.812 38.5399V38.4863H184.272L186.388 41.8743H186.385Z" fill="#F6F6F6"/>
<path d="M40.1935 0V19.8725C40.1935 25.9152 35.2957 30.813 29.253 30.813H0V26.3303C12.0889 24.9678 21.5932 21.764 25.4532 17.7299C26.2266 18.9418 26.7957 20.2943 27.1137 21.7439C27.3481 20.6625 28.0846 17.9944 30.4649 15.6107C32.8485 13.2271 35.5167 12.4906 36.5947 12.2562C35.5167 12.0186 32.8485 11.2854 30.4649 8.90176C28.0846 6.51814 27.3481 3.84995 27.1137 2.77197C26.866 3.88008 26.0625 6.75248 23.4445 9.19972C21.1915 11.2988 18.7476 12.0085 17.6261 12.2562C19.0121 13.0128 20.8935 13.7326 23.093 13.736C24.1208 13.7393 26.26 13.7393 26.9664 12.5475C26.4341 13.6088 25.3193 14.6231 23.709 15.5639C19.1259 18.2421 10.5455 20.3311 0.00334779 21.2953V0H40.1969H40.1935Z" fill="#F6F6F6"/>
</g>
<path d="M72.6105 5.10928C73.4006 2.11301 76.109 0.0273438 79.2023 0.0273438H92.483V30.8437H85.8443V8.04864L87.2203 6.6727H79.8283C79.3295 6.6727 78.8274 6.92044 78.7001 7.41926L72.6909 30.8471H65.7978L72.6005 5.10928H72.6105Z" fill="#F6F6F6"/>
<path d="M145.311 5.10935C146.101 2.11643 148.81 0.0307617 151.906 0.0307617H165.187V30.8471H158.548V8.04871L159.924 6.67277H152.532C152.034 6.67277 151.531 6.9205 151.404 7.41932L145.395 30.8471H138.502L145.305 5.10935H145.311Z" fill="#F6F6F6"/>
<path d="M189.174 5.10935C188.384 2.11643 185.675 0.0307617 182.579 0.0307617H169.298V30.8471H175.937V8.04871L174.561 6.67277H181.953C182.451 6.67277 182.953 6.9205 183.081 7.41932L189.09 30.8471H195.983L189.18 5.10935H189.174Z" fill="#F6F6F6"/>
<path d="M96.5909 0.0576172V30.8472H125.834C131.88 30.8472 136.784 25.9461 136.784 19.8966V0.0576172H96.5909ZM126.075 24.2286H103.24V8.05213L101.847 6.6561H130.29V20.0104C130.29 22.3405 128.402 24.2286 126.071 24.2286H126.075Z" fill="#F6F6F6"/>
<path d="M68.014 6.61914H53.0896C53.5482 7.07778 54.0102 7.53643 54.4688 7.99508V13.2109H63.2568V19.8027H54.4688V30.7902H47.877V0.0273438H68.0776L68.014 6.61914Z" fill="#F6F6F6"/>
<defs>
<clipPath id="clip0_108_1123">
<rect width="195.973" height="46.3133" fill="white"/>
</clipPath>
</defs>
</svg>
