<svg width="166" height="40" viewBox="0 0 166 40" fill="none" xmlns="http://www.w3.org/2000/svg">
<g clip-path="url(#clip0_108_747)">
<path d="M61.5049 4.32738C62.1741 1.78937 64.4683 0.022686 67.0885 0.022686H78.338V26.1259H72.7147V6.81718L73.8802 5.65168H67.6188C67.1963 5.65168 66.7709 5.86153 66.6632 6.28406L61.573 26.1287H55.7341L61.4964 4.32738H61.5049Z" fill="#F6F6F6"/>
<path d="M123.086 4.32738C123.756 1.7922 126.05 0.0255222 128.673 0.0255222H139.922V26.1287H134.299V6.81718L135.464 5.65168H129.203C128.781 5.65168 128.355 5.86153 128.247 6.28405L123.157 26.1287H117.318L123.081 4.32738H123.086Z" fill="#F6F6F6"/>
<path d="M160.241 4.32738C159.571 1.7922 157.277 0.0255222 154.654 0.0255222H143.405V26.1287H149.028V6.81718L147.862 5.65168H154.124C154.546 5.65168 154.972 5.86153 155.079 6.28405L160.17 26.1287H166.009L160.246 4.32738H160.241Z" fill="#F6F6F6"/>
<path d="M57.6118 5.60633H44.97C45.3585 5.99483 45.7498 6.38333 46.1383 6.77183V11.1899H53.5822V16.7736H46.1383V26.0805H40.5547V0.0227051H57.6657L57.6118 5.60633Z" fill="#F6F6F6"/>
<path d="M46.2088 34.1228L43.9997 37.1967H43.7757L41.5922 34.1228V39.1109H40.5514V32.6113H41.7595L43.9033 35.6569L46.0386 32.6113H47.2467V39.1109H46.206V34.1228H46.2088Z" fill="#F6F6F6"/>
<path d="M54.9118 37.7355H51.3926L50.78 39.0995H49.6741L52.5893 32.6H53.7207L56.6359 39.0995H55.53L54.9089 37.7355H54.9118ZM53.1564 33.6946L51.7811 36.7884H54.5289L53.1536 33.6946H53.1564Z" fill="#F6F6F6"/>
<path d="M64.6725 39.0995H63.4559L61.4794 36.8536H60.104V39.0995H59.0633V32.5886C59.3979 32.5886 59.9027 32.5886 60.5776 32.5943C61.2525 32.5971 61.7573 32.6 62.0919 32.6C62.8094 32.6 63.3708 32.8098 63.7763 33.2267C64.1819 33.6435 64.3832 34.1454 64.3832 34.7268C64.3832 35.24 64.2386 35.6853 63.9522 36.0596C63.6629 36.4339 63.2205 36.6636 62.6194 36.7515L64.559 38.9152L64.6696 39.1024L64.6725 39.0995ZM60.104 33.5471V35.9065H62.0834C62.4917 35.9065 62.8008 35.7959 63.0107 35.5718C63.2205 35.3478 63.3255 35.0727 63.3255 34.7466C63.3255 34.4205 63.2205 34.1454 63.0107 33.9072C62.8008 33.669 62.4946 33.5499 62.0919 33.5499H60.104V33.5471Z" fill="#F6F6F6"/>
<path d="M72.261 32.6368L69.2806 35.7391L72.5219 39.0371V39.1024H71.2202L68.3221 36.139V39.1024H67.2814V32.6028H68.3221V35.4074L70.9679 32.6028H72.2581V32.6397L72.261 32.6368Z" fill="#F6F6F6"/>
<path d="M79.6283 39.0995H74.8273V32.6H79.5999V33.6123H75.8652V35.3677H79.4496V36.3347H75.8652V38.0815H79.6254V39.1024L79.6283 39.0995Z" fill="#F6F6F6"/>
<path d="M83.9642 33.5386H81.8288V32.6H87.1402V33.5386H85.0134V39.1024H83.9642V33.5386Z" fill="#F6F6F6"/>
<path d="M89.6385 39.0995V32.6H90.6679V39.0995H89.6385Z" fill="#F6F6F6"/>
<path d="M98.3131 37.2251V32.6H99.3539V39.0995H98.5655L94.879 34.5113V39.0995H93.8298V32.6H94.6295L98.316 37.2251H98.3131Z" fill="#F6F6F6"/>
<path d="M107.286 34.0944C107.061 33.8704 106.792 33.7002 106.472 33.5783C106.154 33.4564 105.839 33.3968 105.53 33.3968C104.793 33.3968 104.209 33.6378 103.775 34.1199C103.341 34.602 103.128 35.2003 103.134 35.9121C103.134 36.5672 103.335 37.123 103.738 37.5739C104.141 38.0248 104.739 38.2516 105.53 38.2516C106.131 38.2516 106.659 38.0588 107.118 37.676V36.3573H105.306V35.43H108.082V38.0957C107.396 38.85 106.545 39.2271 105.527 39.2271C104.952 39.2271 104.438 39.1364 103.99 38.9521C103.542 38.7677 103.185 38.521 102.918 38.2091C102.652 37.8972 102.451 37.5455 102.314 37.1599C102.178 36.7742 102.11 36.3573 102.11 35.9121C102.11 34.9281 102.414 34.1029 103.021 33.4365C103.627 32.7701 104.464 32.4383 105.527 32.4383C106.469 32.4383 107.271 32.7673 107.932 33.4223L107.283 34.0916L107.286 34.0944Z" fill="#F6F6F6"/>
<path d="M118.858 37.7355H115.339L114.727 39.0995H113.621L116.536 32.6H117.667L120.582 39.0995H119.476L118.855 37.7355H118.858ZM117.103 33.6946L115.728 36.7884H118.475L117.1 33.6946H117.103Z" fill="#F6F6F6"/>
<path d="M127.533 34.0944C127.309 33.8704 127.039 33.7002 126.719 33.5783C126.401 33.4564 126.087 33.3968 125.778 33.3968C125.04 33.3968 124.456 33.6378 124.022 34.1199C123.588 34.602 123.376 35.2003 123.381 35.9121C123.381 36.5672 123.583 37.123 123.985 37.5739C124.388 38.0248 124.986 38.2516 125.778 38.2516C126.379 38.2516 126.906 38.0588 127.366 37.676V36.3573H125.553V35.43H128.33V38.0957C127.643 38.85 126.793 39.2271 125.775 39.2271C125.199 39.2271 124.686 39.1364 124.238 38.9521C123.79 38.7677 123.432 38.521 123.166 38.2091C122.899 37.8972 122.698 37.5455 122.562 37.1599C122.426 36.7742 122.358 36.3573 122.358 35.9121C122.358 34.9281 122.661 34.1029 123.268 33.4365C123.875 32.7701 124.711 32.4383 125.775 32.4383C126.716 32.4383 127.519 32.7673 128.179 33.4223L127.53 34.0916L127.533 34.0944Z" fill="#F6F6F6"/>
<path d="M135.986 39.0995H131.185V32.6H135.958V33.6123H132.223V35.3677H135.808V36.3347H132.223V38.0815H135.983V39.1024L135.986 39.0995Z" fill="#F6F6F6"/>
<path d="M143.334 37.2251V32.6H144.374V39.0995H143.586L139.9 34.5113V39.0995H138.85V32.6H139.65L143.337 37.2251H143.334Z" fill="#F6F6F6"/>
<path d="M153.001 38.2658C152.351 38.9095 151.538 39.2328 150.559 39.2328C149.989 39.2328 149.482 39.1392 149.036 38.9549C148.591 38.7677 148.231 38.5182 147.959 38.2034C147.687 37.8887 147.48 37.5342 147.341 37.1457C147.202 36.7544 147.131 36.3403 147.131 35.9008C147.131 35.4612 147.202 35.0415 147.344 34.6417C147.485 34.2419 147.692 33.8789 147.965 33.5556C148.237 33.2295 148.597 32.9714 149.048 32.7814C149.496 32.5886 150.001 32.495 150.556 32.495C151.484 32.495 152.278 32.824 152.933 33.479L152.235 34.1483C151.784 33.7031 151.223 33.479 150.554 33.479C149.779 33.479 149.187 33.7172 148.77 34.1937C148.356 34.6701 148.152 35.2372 148.157 35.8923C148.163 36.5473 148.367 37.106 148.77 37.5682C149.173 38.0304 149.768 38.2601 150.554 38.2601C150.863 38.2601 151.172 38.1978 151.481 38.0758C151.79 37.951 152.057 37.7781 152.281 37.5569L152.995 38.2715L153.001 38.2658Z" fill="#F6F6F6"/>
<path d="M157.878 35.4697L159.727 32.6H160.981V32.6453L158.4 36.4339V39.0995H157.359V36.4339L154.853 32.6453V32.6H156.089L157.881 35.4697H157.878Z" fill="#F6F6F6"/>
<path d="M81.8175 0.0482082V26.1287H106.588C111.709 26.1287 115.864 21.9772 115.864 16.853V0.0482082H81.8175ZM106.792 20.5224H87.4493V6.82001L86.2696 5.6375H110.362V16.9494C110.362 18.9231 108.763 20.5224 106.789 20.5224H106.792Z" fill="#F6F6F6"/>
<path d="M34.0462 0V16.8331C34.0462 21.9517 29.8975 26.1004 24.7789 26.1004H0V22.3033C10.2399 21.1491 18.2907 18.4353 21.5603 15.0182C22.2154 16.0448 22.6975 17.1904 22.9669 18.4183C23.1654 17.5023 23.7892 15.2422 25.8055 13.2232C27.8245 11.2041 30.0846 10.5802 30.9977 10.3817C30.0846 10.1804 27.8245 9.55936 25.8055 7.5403C23.7892 5.52123 23.1654 3.26113 22.9669 2.34801C22.757 3.28665 22.0764 5.71974 19.8589 7.79268C17.9504 9.57071 15.8803 10.1719 14.9303 10.3817C16.1043 11.0226 17.698 11.6323 19.5611 11.6351C20.4317 11.638 22.2437 11.638 22.8421 10.6284C22.3912 11.5274 21.4469 12.3866 20.0829 13.1835C16.2007 15.4521 8.93266 17.2216 0.00283576 18.0383V0H34.049H34.0462Z" fill="#9400FF"/>
</g>
<defs>
<clipPath id="clip0_108_747">
<rect width="166" height="39.23" fill="white"/>
</clipPath>
</defs>
</svg>
