<svg width="637" height="435" viewBox="0 0 637 435" fill="none" xmlns="http://www.w3.org/2000/svg">
<g clip-path="url(#clip0_315_1472)">
<path d="M290.207 35.7593C289.967 35.0678 289.651 34.4039 289.264 33.7649L273.955 8.54218L273.93 11.2863L273.711 37.0429L264.43 42.675L264.297 42.7552L264.112 42.8686L263.791 43.0622L263.985 43.3859H263.987C264.004 43.4163 264.068 43.5242 264.187 43.7068C264.458 44.1494 265.022 45.0041 265.827 46.1494C266.065 46.4813 266.322 46.8382 266.602 47.2144C266.972 47.7095 267.373 48.2462 267.816 48.8077C267.852 48.8603 267.894 48.9101 267.93 48.9571C267.988 49.029 268.048 49.101 268.104 49.1729C268.306 49.4357 268.51 49.6902 268.726 49.9557C268.726 49.9585 268.729 49.9613 268.729 49.9613C268.737 49.9723 268.746 49.9779 268.751 49.9834C270.843 52.5615 273.567 55.5629 276.81 58.3762L276.815 58.3817C276.815 58.3817 276.818 58.3845 276.823 58.3845C277.861 59.2946 278.954 60.1853 280.104 61.029C280.143 61.0567 280.182 61.0871 280.221 61.1176L280.411 61.2531C280.566 61.361 280.724 61.4744 280.879 61.5878C281.244 61.8395 281.609 62.0968 281.98 62.3402C282.085 62.4122 282.19 62.4785 282.301 62.5505C283.136 63.0954 283.994 63.6155 284.876 64.1023C284.932 64.1328 284.995 64.166 285.053 64.1964H285.056C285.214 64.2904 285.366 64.3707 285.524 64.4509L285.634 64.509L285.645 64.5145H285.648L285.972 64.6888L286.024 64.3983L289.145 48.6888L289.175 48.5422L290.603 41.361C290.979 39.4716 290.838 37.5436 290.207 35.7593ZM289.864 41.2116L288.409 48.5532L288.376 48.7026L286.89 56.1826L286.885 56.2268V56.2379L285.432 63.5436C285.413 63.538 285.396 63.527 285.383 63.5131C285.325 63.4882 285.266 63.4606 285.214 63.4218C285.211 63.4218 285.206 63.4218 285.206 63.4218C284.99 63.3001 284.777 63.1812 284.569 63.0567C284.279 62.8907 283.991 62.7192 283.703 62.5422C282.685 61.917 281.689 61.2503 280.741 60.5477C280.63 60.473 280.525 60.3983 280.422 60.3181C280.068 60.0636 279.725 59.7953 279.38 59.5297C279.369 59.5242 279.366 59.5159 279.352 59.5076C279.238 59.4191 279.125 59.325 279.014 59.2337C278.796 59.0622 278.583 58.888 278.375 58.7109C275.1 56.0166 272.303 53.0595 270.107 50.4454C269.896 50.1853 269.686 49.9391 269.487 49.6929C269.277 49.4412 269.075 49.1867 268.881 48.9433C268.837 48.8962 268.798 48.8409 268.759 48.7939L268.751 48.7828C268.726 48.7496 268.704 48.722 268.679 48.6888C268.397 48.3347 268.134 47.9917 267.88 47.6597C267.083 46.6058 266.416 45.6791 265.905 44.9322C265.636 44.5477 265.415 44.213 265.23 43.9336C265.23 43.9336 265.23 43.9308 265.224 43.9281C265.058 43.6736 264.928 43.4744 264.831 43.3167L264.947 43.2476L274.403 37.5076L274.464 37.4716L274.469 36.9018L274.558 26.4011L274.566 25.5878L274.677 12.5173L274.688 11.2033L288.622 34.1549C288.962 34.7164 289.239 35.3057 289.463 35.9115C289.471 35.9336 289.48 35.9585 289.488 35.9779C289.491 35.9779 289.493 35.9779 289.493 35.9806C289.493 35.9806 289.496 35.9834 289.496 35.9889C289.496 35.9917 289.493 35.9945 289.493 35.9972C289.516 36.0498 289.535 36.1051 289.552 36.1577C290.094 37.7759 290.204 39.5076 289.864 41.2116ZM279.38 59.5297C279.38 59.5297 279.366 59.5159 279.352 59.5076L279.371 59.5353L279.9 60.4039C279.974 60.4592 280.044 60.5117 280.118 60.5698L280.422 60.3181C280.068 60.0636 279.725 59.7953 279.38 59.5297ZM268.751 48.7828C268.726 48.7496 268.704 48.722 268.679 48.6888L268.582 48.7994L268.455 48.9488H268.477L268.729 48.7967H268.759L268.751 48.7828Z" fill="white"/>
<path d="M255.262 82.9488V82.8216C255.259 82.5754 255.257 82.3347 255.248 82.0885C255.223 81.0844 255.16 80.0802 255.06 79.0816C255.046 78.9544 255.038 78.8271 255.019 78.7026C254.974 78.2545 254.919 77.8119 254.861 77.3721C254.825 77.1093 254.781 76.8409 254.745 76.5781C254.396 74.2849 253.884 72.0609 253.284 69.9557C253.273 69.9032 253.259 69.8562 253.243 69.8091C252.684 67.8506 252.05 66 251.403 64.3071C251.384 64.2517 251.37 64.2019 251.342 64.1521C251.32 64.083 251.292 64.0083 251.265 63.9419C251.237 63.8838 251.218 63.8174 251.193 63.7566C250.709 62.5173 250.219 61.361 249.751 60.3126C249.386 59.4993 249.035 58.7524 248.703 58.0775C248.498 57.6542 248.299 57.2642 248.114 56.899C247.472 55.657 246.971 54.7635 246.706 54.3181C246.598 54.13 246.531 54.0194 246.518 53.9945L246.318 53.668L245.997 53.8617L245.809 53.9751L245.674 54.0581L236.398 59.6874L232.805 57.8589L224.671 53.7151L224.608 53.6819L222.339 52.5256L222.09 52.4011L215.949 49.2697L215.7 49.1425L211 46.7469L226.306 71.9696C226.696 72.6113 227.142 73.195 227.643 73.7289C228.934 75.112 230.58 76.1272 232.428 76.6639L242.595 79.6293L242.736 79.668L254.546 83.1176L254.756 83.1729L254.98 83.2393L255.262 83.325V82.9571V82.9516V82.9488ZM254.18 82.2268L253.97 82.1632L245.093 79.5768L244.742 79.4772L243.104 78.9986L242.957 78.9571L232.639 75.9419C231.087 75.4938 229.687 74.6777 228.547 73.574C228.539 73.5712 228.536 73.5685 228.536 73.5629C228.456 73.4882 228.378 73.408 228.301 73.3306C227.795 72.7994 227.338 72.2185 226.951 71.5823L213.019 48.6252L216.447 50.3734L216.693 50.4979L222.835 53.6293L223.084 53.7566L224.193 54.3209L224.788 54.6252L235.92 60.2932L236.431 60.5532L236.846 60.3015L245.948 54.7801L246.064 54.7082C246.155 54.8658 246.277 55.0761 246.426 55.3416V55.3472C246.589 55.6376 246.78 55.9862 246.996 56.39C247.419 57.1923 247.942 58.213 248.507 59.4163C248.684 59.7953 248.869 60.1881 249.052 60.603C249.068 60.639 249.085 60.6722 249.099 60.7109C249.256 61.0539 249.414 61.4108 249.566 61.7815C249.696 62.0719 249.818 62.3734 249.951 62.6777C250.147 63.1618 250.349 63.6542 250.543 64.166C250.562 64.2158 250.581 64.2683 250.604 64.3126C250.642 64.4149 250.684 64.5228 250.72 64.6252C250.742 64.6888 250.767 64.7524 250.794 64.8133C251.378 66.3707 251.948 68.0498 252.46 69.8202C252.474 69.87 252.487 69.9142 252.498 69.9668C252.858 71.2116 253.185 72.5062 253.464 73.8313C253.561 74.2462 253.644 74.6722 253.727 75.0954C253.804 75.527 253.882 75.9557 253.945 76.3873C253.97 76.5145 253.99 76.6418 254.006 76.769C254.189 77.9419 254.322 79.1314 254.405 80.3264C254.429 80.6611 254.443 80.9848 254.463 81.3195C254.463 81.3195 254.463 81.3213 254.463 81.325C254.471 81.5325 254.479 81.7289 254.482 81.9336C254.482 81.9364 254.485 81.9391 254.482 81.9419C254.488 82.0083 254.488 82.0802 254.49 82.1494V82.1549C254.496 82.1909 254.496 82.2268 254.49 82.2628C254.496 82.2794 254.499 82.2987 254.499 82.3209L254.18 82.2268Z" fill="white"/>
<path d="M264.638 43.7178C264.616 43.6846 264.591 43.6487 264.569 43.6127C264.549 43.5795 264.527 43.5463 264.51 43.5159C264.51 43.5159 264.51 43.5131 264.508 43.5131C264.439 43.4053 264.389 43.3306 264.356 43.2725H264.353C264.331 43.2531 264.303 43.2338 264.278 43.2116H264.275L263.988 43.3887L263.064 43.9502L257.351 47.4191L257.038 47.6072H257.036L256.709 47.8091L255.456 48.5671L255.049 48.816L254.693 49.0346L253.796 49.5768L253.47 49.7732L253.152 49.964L252.551 50.3292L249.827 51.9834L249.614 52.1134L246.518 53.9945C246.532 54.0194 246.598 54.13 246.706 54.3181L247.663 53.7372L249.614 52.5533L250.189 52.2047L253.337 50.2932L253.655 50.0996L253.982 49.9032L255.243 49.1369L255.653 48.8907L256.911 48.1245L257.243 47.9253L257.553 47.7372L264.187 43.7095L264.253 43.6708C264.483 43.8451 264.71 44.0166 264.942 44.1909C264.823 44.0138 264.723 43.8534 264.638 43.7178ZM264.638 43.7178C264.616 43.6846 264.591 43.6487 264.569 43.6127C264.549 43.5795 264.527 43.5463 264.51 43.5159C264.51 43.5159 264.51 43.5131 264.508 43.5131C264.439 43.4053 264.389 43.3306 264.356 43.2725H264.353C264.331 43.2531 264.303 43.2338 264.278 43.2116H264.275L263.988 43.3887L263.064 43.9502L257.351 47.4191L257.038 47.6072H257.036L256.709 47.8091L255.456 48.5671L255.049 48.816L254.693 49.0346L253.796 49.5768L253.47 49.7732L253.152 49.964L252.551 50.3292L249.827 51.9834L249.614 52.1134L246.518 53.9945C246.532 54.0194 246.598 54.13 246.706 54.3181L247.663 53.7372L249.614 52.5533L250.189 52.2047L253.337 50.2932L253.655 50.0996L253.982 49.9032L255.243 49.1369L255.653 48.8907L256.911 48.1245L257.243 47.9253L257.553 47.7372L264.187 43.7095L264.253 43.6708C264.483 43.8451 264.71 44.0166 264.942 44.1909C264.823 44.0138 264.723 43.8534 264.638 43.7178ZM263.988 43.3887L263.064 43.9502L257.351 47.4191L257.038 47.6072H257.036L256.709 47.8091L255.456 48.5671L255.049 48.816L254.693 49.0346L253.796 49.5768L253.47 49.7732L253.152 49.964L252.551 50.3292L249.827 51.9834L249.614 52.1134L246.518 53.9945C246.532 54.0194 246.598 54.13 246.706 54.3181L247.663 53.7372L249.614 52.5533L250.189 52.2047L253.337 50.2932L253.655 50.0996L253.982 49.9032L255.243 49.1369L255.653 48.8907L256.911 48.1245L257.243 47.9253L257.553 47.7372L264.187 43.7095C264.068 43.5242 264.004 43.4163 263.988 43.3887ZM299.848 101.629L299.821 101.245C299.522 97.1895 298.811 92.6611 297.45 87.8147C297.436 87.7621 297.419 87.7151 297.405 87.6653C295.353 80.4122 291.837 72.473 286.025 64.3983C285.928 64.26 285.831 64.1245 285.731 63.9862H285.729C285.615 63.8257 285.502 63.6708 285.383 63.5131C285.336 63.444 285.286 63.3859 285.233 63.3167V63.3112C282.188 59.2172 278.547 55.0927 274.201 51.0152C274.068 50.8907 273.938 50.769 273.8 50.6418C273.169 50.0553 272.525 49.4716 271.866 48.8907C271.811 48.8409 271.756 48.7967 271.703 48.7469C271.31 48.4011 270.912 48.0609 270.514 47.7151C268.757 46.2158 266.906 44.722 264.948 43.2476C264.848 43.1701 264.746 43.0954 264.643 43.0208L264.635 43.0125C264.635 43.0125 264.627 43.0097 264.621 43.0069V43.0014C264.58 42.9737 264.544 42.9405 264.499 42.9129L264.297 42.7552L264.112 42.8686L263.791 43.0622L257.141 47.0982L256.828 47.2891L256.496 47.491L255.26 48.2434L254.856 48.4869L253.614 49.2393L253.287 49.4412H253.284L252.969 49.6321L246.322 53.6681L246.001 53.8617L245.812 53.9751L245.857 54.2268C245.865 54.2794 245.876 54.3237 245.882 54.3734H245.884C245.884 54.39 245.884 54.3956 245.887 54.4011C245.907 54.5311 245.926 54.6556 245.951 54.7801C246.352 57.2006 246.822 59.5297 247.345 61.7759C247.533 62.6003 247.732 63.408 247.94 64.2102C247.948 64.2628 247.965 64.3071 247.976 64.3596C248.286 65.5629 248.612 66.7414 248.955 67.8949C248.974 67.9613 248.994 68.0332 249.016 68.0996C249.19 68.7026 249.373 69.2863 249.561 69.8672C249.572 69.9198 249.591 69.9696 249.608 70.0166C250.867 73.9723 252.311 77.6183 253.885 80.9765C253.885 80.982 253.888 80.9848 253.89 80.9903H253.893C254.067 81.3804 254.25 81.7566 254.435 82.1328V82.1383C254.452 82.1826 254.474 82.2158 254.493 82.2628C254.579 82.4371 254.665 82.6113 254.753 82.7856H254.756C254.831 82.9405 254.903 83.0899 254.983 83.2393C255.373 84.0138 255.766 84.769 256.175 85.5076C256.541 86.1909 256.914 86.8575 257.301 87.5104C258.48 89.5436 259.714 91.4468 260.975 93.2338C261.008 93.2835 261.044 93.3333 261.083 93.3804C261.207 93.5657 261.34 93.7483 261.473 93.9308C261.503 93.9751 261.537 94.0221 261.57 94.0664C265.382 99.3001 269.484 103.505 273.529 106.877H274.718C270.425 103.394 266.038 98.9654 261.993 93.361L261.971 93.3278C261.946 93.2891 261.918 93.2531 261.891 93.2116C261.882 93.2061 261.877 93.1978 261.871 93.1895C260.981 91.9474 260.106 90.6473 259.254 89.2891C259.033 88.9405 258.817 88.5864 258.601 88.2268C257.437 86.3015 256.316 84.2573 255.251 82.0885C255.108 81.8147 254.978 81.5353 254.842 81.2559V81.2504C254.693 80.9433 254.549 80.6362 254.408 80.3264C252.933 77.1452 251.583 73.7123 250.396 70.0028C250.374 69.9585 250.36 69.906 250.349 69.8534C250.064 68.9737 249.788 68.0775 249.522 67.1618C249.5 67.0954 249.483 67.0235 249.461 66.9544C249.218 66.1024 248.983 65.2365 248.756 64.3485C248.737 64.3015 248.726 64.2517 248.714 64.1964C248.474 63.2697 248.244 62.3237 248.023 61.3638C247.652 59.751 247.309 58.0941 246.999 56.39C246.922 55.9972 246.853 55.5989 246.784 55.2006L246.772 55.184C246.772 55.184 246.77 55.1701 246.77 55.1646C246.72 54.8935 246.687 54.6362 246.64 54.3596L246.709 54.3181L247.666 53.7372L249.616 52.5533L250.192 52.2047L253.34 50.2932L253.658 50.0996L253.984 49.9032L255.246 49.1369L255.655 48.8907L256.914 48.1245L257.246 47.9253L257.556 47.7372L264.19 43.7095L264.256 43.6708C264.486 43.8451 264.712 44.0166 264.945 44.1909L264.95 44.1992C265.271 44.4454 265.592 44.6833 265.907 44.9322C267.269 45.9889 268.58 47.0567 269.836 48.1245C270.085 48.3375 270.334 48.5505 270.574 48.7635C270.635 48.8105 270.693 48.8603 270.746 48.9101C272.356 50.3071 273.877 51.7151 275.308 53.1231C275.452 53.2642 275.593 53.397 275.734 53.538C278.746 56.5311 281.394 59.5408 283.706 62.5422C283.919 62.8133 284.124 63.0844 284.329 63.3527L284.332 63.3582C284.52 63.6072 284.7 63.8562 284.879 64.1024C284.935 64.1687 284.987 64.2379 285.034 64.3043C285.034 64.3043 285.036 64.3071 285.04 64.3126C285.316 64.6916 285.59 65.0733 285.856 65.4523C285.997 65.6459 286.132 65.8423 286.265 66.036C291.469 73.5546 294.694 80.9212 296.625 87.6791C296.645 87.7261 296.659 87.7815 296.67 87.8257C298.053 92.7026 298.767 97.2587 299.071 101.325C299.076 101.444 299.09 101.563 299.099 101.685C299.096 101.69 299.099 101.696 299.096 101.701H299.099C299.11 101.831 299.115 101.95 299.121 102.08C299.209 103.474 299.248 104.811 299.248 106.075C299.253 106.329 299.248 106.575 299.242 106.822V106.877H299.998C300.017 105.248 299.975 103.494 299.851 101.629H299.848ZM255.232 49.1176C255.221 49.0954 255.204 49.0733 255.191 49.0484C255.191 49.0429 255.179 49.0346 255.174 49.0235L254.693 49.0346L253.796 49.5768L253.47 49.7732L253.152 49.964L252.551 50.3292L249.827 51.9834L249.614 52.1134L246.518 53.9945C246.532 54.0194 246.598 54.13 246.706 54.3181L247.663 53.7372L249.614 52.5533L250.189 52.2047L253.337 50.2932L253.655 50.0996L253.982 49.9032L255.243 49.1369C255.243 49.1369 255.238 49.1231 255.232 49.1176ZM264.638 43.7178C264.616 43.6846 264.591 43.6487 264.569 43.6127C264.549 43.5795 264.527 43.5463 264.51 43.5159C264.51 43.5159 264.51 43.5131 264.508 43.5131C264.439 43.4053 264.389 43.3306 264.356 43.2725H264.353C264.331 43.2531 264.303 43.2338 264.278 43.2116H264.275L263.988 43.3887L263.064 43.9502L257.351 47.4191L257.038 47.6072H257.036L256.709 47.8091L255.456 48.5671L255.049 48.816L254.693 49.0346L253.796 49.5768L253.47 49.7732L253.152 49.964L252.551 50.3292L249.827 51.9834L249.614 52.1134L246.518 53.9945C246.532 54.0194 246.598 54.13 246.706 54.3181L247.663 53.7372L249.614 52.5533L250.189 52.2047L253.337 50.2932L253.655 50.0996L253.982 49.9032L255.243 49.1369L255.653 48.8907L256.911 48.1245L257.243 47.9253L257.553 47.7372L264.187 43.7095L264.253 43.6708C264.483 43.8451 264.71 44.0166 264.942 44.1909C264.823 44.0138 264.723 43.8534 264.638 43.7178ZM264.638 43.7178C264.616 43.6846 264.591 43.6487 264.569 43.6127C264.549 43.5795 264.527 43.5463 264.51 43.5159C264.51 43.5159 264.51 43.5131 264.508 43.5131C264.439 43.4053 264.389 43.3306 264.356 43.2725H264.353C264.331 43.2531 264.303 43.2338 264.278 43.2116H264.275L263.988 43.3887H263.985L257.351 47.4136L257.036 47.6044L256.707 47.8064L255.453 48.5643H255.451V48.5699L255.049 48.8105V48.816L254.247 49.3001L253.796 49.5768L253.47 49.7704L253.152 49.964L252.551 50.3292L249.827 51.9834L249.614 52.1134L246.518 53.9945C246.532 54.0194 246.598 54.13 246.706 54.3181L247.663 53.7372L249.614 52.5533L250.189 52.2047L253.337 50.2932L253.655 50.0996L253.982 49.9032L255.243 49.1369L255.653 48.8907L256.911 48.1245L257.243 47.9253L257.553 47.7372L264.187 43.7095L264.253 43.6708C264.483 43.8451 264.71 44.0166 264.942 44.1909C264.823 44.0138 264.723 43.8534 264.638 43.7178Z" fill="white"/>
<path d="M287.515 81.8921L287.178 81.9004L283.233 81.9889H283.062L281.089 82.0332L280.561 82.0442L279.252 82.0719L279.083 82.0802L275.559 82.1521L269.811 92.6362L276.016 102.86L280.226 102.772H280.395L287.972 102.6L291.579 96.0221L291.659 95.8727L292.246 94.8077V94.8022L293.72 92.1162L287.515 81.8921ZM291.925 93.8229H291.922L291.211 95.1286L291.126 95.278L287.518 101.859L279.944 102.019L279.772 102.028L276.433 102.097L270.679 92.6196L276.013 82.899L279.537 82.8243L279.703 82.8132L283.515 82.733H283.684L287.1 82.6556L288.663 85.2337L292.852 92.1328L291.925 93.8229Z" fill="white"/>
<path d="M255.049 48.816V48.8105C254.982 48.7026 254.919 48.5947 254.852 48.4868L253.61 49.2393L253.284 49.4412H253.281L252.965 49.6321L246.318 53.668L246.517 53.9917L249.613 52.1134L249.826 51.9834L252.551 50.3292L253.151 49.9668L253.469 49.7731L253.795 49.5767L254.692 49.0345L255.173 49.0235C255.134 48.9543 255.093 48.8879 255.049 48.816ZM253.793 49.5712C253.732 49.4661 253.674 49.3527 253.61 49.242L253.284 49.4412H253.281L252.965 49.6321L246.318 53.668L246.517 53.9917L249.613 52.1134L249.826 51.9834L252.551 50.3292L253.151 49.9668L253.469 49.7731L253.795 49.5767V49.5712H253.793ZM256.706 47.8063C256.636 47.704 256.567 47.5961 256.495 47.491L255.259 48.2434L254.855 48.4868L253.613 49.2393L253.286 49.4412H253.284L252.968 49.6321L246.321 53.668L246.52 53.9917L249.615 52.1134L249.828 51.9834L252.553 50.3292L253.154 49.9668L253.472 49.7731L253.798 49.5767L254.694 49.0345L255.051 48.816L255.458 48.5698L256.711 47.8091H256.708L256.706 47.8063ZM254.562 44.6002C254.49 44.4924 254.423 44.39 254.351 44.2849L253.245 44.9571L252.863 45.1867L251.759 45.8589C251.815 45.9723 251.876 46.0802 251.936 46.1908C251.992 46.307 252.053 46.4121 252.113 46.52L253.25 45.8312L253.635 45.5961L254.769 44.9073C254.7 44.7994 254.634 44.7054 254.559 44.6002H254.562ZM256.706 47.8063C256.636 47.704 256.567 47.5961 256.495 47.491L255.259 48.2434L254.855 48.4868L253.613 49.2393L253.286 49.4412H253.284L252.968 49.6321L246.321 53.668L246.52 53.9917L249.615 52.1134L249.828 51.9834L252.553 50.3292L253.154 49.9668L253.472 49.7731L253.798 49.5767L254.694 49.0345L255.051 48.816L255.458 48.5698L256.711 47.8091H256.708L256.706 47.8063ZM251.939 46.1936C251.994 46.307 252.055 46.4121 252.116 46.52L253.253 45.8312L253.638 45.5961L254.772 44.9073C254.703 44.7994 254.636 44.7054 254.562 44.6002C254.49 44.4924 254.423 44.39 254.351 44.2849L253.245 44.9571L252.863 45.1867L251.759 45.8589C251.815 45.9723 251.876 46.0802 251.936 46.1908L251.939 46.1936ZM264.642 43.0207L264.634 43.0124L264.629 43.0014L264.429 42.6749L263.024 40.3513C262.886 40.1272 262.675 39.9668 262.44 39.8755C262.147 39.7731 261.818 39.7842 261.53 39.9336C261.508 39.9419 261.48 39.9557 261.458 39.9723L261.207 40.1245L260.883 40.3181L254.996 43.8921L254.683 44.0857H254.681L254.351 44.2849L253.245 44.9571L252.863 45.1867L251.759 45.8589L251.43 46.0581L251.112 46.2517L248.213 48.0083L245.222 49.8229L244.901 50.0193L244.65 50.1715C244.625 50.1853 244.603 50.2019 244.581 50.2185C244.099 50.5615 243.955 51.2227 244.265 51.7372L245.673 54.0581L245.872 54.3845L245.884 54.4011L246.066 54.7054L246.293 54.5671L246.387 54.509L246.636 54.3596L246.705 54.3181L247.662 53.7372L249.613 52.5532L250.188 52.2047L253.336 50.2904L253.654 50.0996L253.981 49.9032L255.242 49.1341L255.652 48.8907L256.908 48.1217L257.242 47.9225L257.552 47.7344L264.186 43.7095L264.507 43.5131L264.598 43.455L264.822 43.3195L264.642 43.0207ZM244.91 51.3471C244.799 51.1646 244.857 50.9267 245.04 50.816L251.469 46.9156L251.787 46.722L252.116 46.5228L253.253 45.8312L253.638 45.5961L254.772 44.9073L255.104 44.7081L255.422 44.5117L261.848 40.6141C262.031 40.5007 262.269 40.5615 262.379 40.7441L263.79 43.0622L257.14 47.0982L256.827 47.289L256.495 47.491L255.259 48.2434L254.855 48.4868L253.613 49.2393L253.286 49.4412H253.284L252.968 49.6321L246.321 53.668L244.913 51.3471H244.91ZM254.562 44.6002C254.49 44.4924 254.423 44.39 254.351 44.2849L253.245 44.9571L252.863 45.1867L251.759 45.8589C251.815 45.9723 251.876 46.0802 251.936 46.1908C251.992 46.307 252.053 46.4121 252.113 46.52L253.25 45.8312L253.635 45.5961L254.769 44.9073C254.7 44.7994 254.634 44.7054 254.559 44.6002H254.562ZM256.706 47.8063C256.636 47.704 256.567 47.5961 256.495 47.491L255.259 48.2434L254.855 48.4868L253.613 49.2393L253.286 49.4412H253.284L252.968 49.6321L246.321 53.668L246.52 53.9917L249.615 52.1134L249.828 51.9834L252.553 50.3292L253.154 49.9668L253.472 49.7731L253.798 49.5767L254.694 49.0345L255.051 48.816L255.458 48.5698L256.711 47.8091H256.708L256.706 47.8063ZM256.706 47.8063C256.636 47.704 256.567 47.5961 256.495 47.491L255.259 48.2434L254.855 48.4868L253.613 49.2393L253.286 49.4412H253.284L252.968 49.6321L246.321 53.668L246.52 53.9917L249.615 52.1134L249.828 51.9834L252.553 50.3292L253.154 49.9668L253.472 49.7731L253.798 49.5767L254.694 49.0345L255.051 48.816L255.458 48.5698L256.711 47.8091H256.708L256.706 47.8063ZM253.793 49.5712C253.732 49.4661 253.674 49.3527 253.61 49.242L253.284 49.4412H253.281L252.965 49.6321L246.318 53.668L246.517 53.9917L249.613 52.1134L249.826 51.9834L252.551 50.3292L253.151 49.9668L253.469 49.7731L253.795 49.5767V49.5712H253.793ZM253.793 49.5712C253.732 49.4661 253.674 49.3527 253.61 49.242L253.284 49.4412H253.281L252.965 49.6321L246.318 53.668L246.517 53.9917L249.613 52.1134L249.826 51.9834L252.551 50.3292L253.151 49.9668L253.469 49.7731L253.795 49.5767V49.5712H253.793Z" fill="white"/>
<path d="M251.937 46.1909C251.876 46.0802 251.815 45.9723 251.76 45.8589L251.431 46.0581L251.113 46.2517C251.174 46.3624 251.229 46.4758 251.29 46.5837H251.293L251.611 46.39L251.94 46.1936L251.937 46.1909ZM252.726 41.9419C252.656 41.834 252.585 41.7372 252.51 41.6348L251.558 42.213L251.212 42.4232L250.255 43.0014C250.313 43.1148 250.369 43.2227 250.43 43.3361C250.488 43.4495 250.543 43.5574 250.604 43.668L251.597 43.065L251.951 42.8492L252.944 42.2517C252.872 42.1438 252.8 42.0442 252.726 41.9419ZM261.741 40.2766L261.531 39.9336L260.48 38.1992C260.137 37.6348 259.395 37.4523 258.834 37.798L253.152 41.2448L252.839 41.4329L252.51 41.6348L251.558 42.213L251.212 42.4232L250.255 43.0014L249.932 43.1978L249.613 43.3886L243.934 46.8382C243.696 46.982 243.522 47.2005 243.433 47.444C243.411 47.5048 243.392 47.5712 243.378 47.6376C243.331 47.9198 243.37 48.2213 243.53 48.4841L244.581 50.2185L244.792 50.5643L244.971 50.8575L245.041 50.816L251.47 46.9156L251.788 46.722L252.117 46.5228L253.254 45.8312L253.639 45.5961L254.773 44.9073L255.105 44.7081L255.423 44.5117L261.849 40.6141L261.918 40.5698L261.741 40.2766ZM254.997 43.8921L254.684 44.0857H254.681L254.352 44.2849L253.246 44.9571L252.864 45.1867L251.76 45.8589L251.431 46.0581L251.113 46.2517L248.214 48.0083L245.223 49.8229L244.175 48.0968C244.045 47.8866 244.114 47.6072 244.324 47.4827L249.956 44.0636L250.277 43.87L250.604 43.668L251.597 43.065L251.951 42.8492L252.944 42.2517L253.273 42.0498L253.589 41.8561L259.221 38.4371C259.431 38.3126 259.711 38.3817 259.835 38.592L260.884 40.3181L254.997 43.8921ZM252.726 41.9419C252.656 41.834 252.585 41.7372 252.51 41.6348L251.558 42.213L251.212 42.4232L250.255 43.0014C250.313 43.1148 250.369 43.2227 250.43 43.3361C250.488 43.4495 250.543 43.5574 250.604 43.668L251.597 43.065L251.951 42.8492L252.944 42.2517C252.872 42.1438 252.8 42.0442 252.726 41.9419ZM251.293 46.5864H251.29C251.229 46.4758 251.174 46.3624 251.113 46.2517L248.214 48.0083L248.41 48.3319L251.293 46.5864Z" fill="white"/>
<path d="M255.213 44.2075H255.21C255.141 44.1024 255.066 43.9972 254.997 43.8921L254.684 44.0858H254.681L254.352 44.2849C254.424 44.3901 254.49 44.4924 254.562 44.5975C254.637 44.7054 254.704 44.7995 254.773 44.9073L255.105 44.7082L255.423 44.5118C255.354 44.4122 255.282 44.3154 255.213 44.2075ZM251.94 46.1937C251.879 46.0802 251.818 45.9724 251.763 45.8589L251.434 46.0581L251.116 46.2517C251.176 46.3624 251.232 46.4758 251.293 46.5837H251.295C251.359 46.6999 251.414 46.8022 251.472 46.9129L251.791 46.722L252.12 46.5228C252.059 46.4122 251.998 46.3071 251.943 46.1937H251.94ZM253.37 41.5491C253.295 41.4468 253.223 41.3472 253.152 41.2448C253.149 41.2448 253.149 41.2421 253.149 41.2421C252.593 40.4509 252.017 39.6487 251.428 38.8327C251.392 38.7856 251.359 38.7414 251.323 38.6888C248.972 35.4717 246.357 32.0802 243.455 28.5394L241.89 26.6224L241.773 26.4869L242.819 28.9239C244.321 32.426 245.815 35.704 247.295 38.7552C247.32 38.8078 247.345 38.8576 247.367 38.9073C248.125 40.4564 248.872 41.9558 249.613 43.3887C249.671 43.5049 249.73 43.6183 249.782 43.7289C249.846 43.8396 249.898 43.9502 249.956 44.0636L250.277 43.87L250.604 43.6681C250.543 43.5574 250.488 43.4495 250.429 43.3361C250.369 43.2227 250.313 43.1148 250.255 43.0014C249.577 41.6764 248.889 40.3071 248.2 38.8907C248.178 38.8382 248.153 38.7884 248.131 38.7441C246.994 36.4094 245.851 33.9475 244.698 31.3444C244.698 31.3389 244.692 31.3306 244.689 31.3223C244.684 31.3168 244.681 31.3112 244.681 31.3029C244.681 31.3029 244.679 31.3011 244.675 31.2974C244.675 31.2974 244.67 31.2946 244.673 31.2919C244.653 31.2476 244.634 31.2061 244.615 31.1646C244.642 31.2006 244.673 31.2393 244.698 31.2753C244.698 31.2753 244.698 31.2762 244.7 31.278C244.7 31.278 244.709 31.2808 244.709 31.2863C244.714 31.2946 244.717 31.3002 244.722 31.3057C244.728 31.3112 244.733 31.3195 244.736 31.3278C246.772 33.8783 248.656 36.3347 250.393 38.7082C250.432 38.7552 250.468 38.8022 250.499 38.852C251.193 39.7925 251.865 40.722 252.51 41.6349C252.584 41.7372 252.656 41.834 252.726 41.9419C252.8 42.0443 252.872 42.1439 252.944 42.2517L253.273 42.0498L253.589 41.8562C253.514 41.7538 253.445 41.6515 253.37 41.5491ZM257.351 47.4191V47.4136C257.282 47.3112 257.21 47.2061 257.141 47.101L256.828 47.2891L256.496 47.491C256.568 47.5961 256.637 47.704 256.706 47.8064H256.709C256.776 47.917 256.839 48.0138 256.908 48.1217C256.911 48.1217 256.911 48.1245 256.911 48.1245L257.243 47.9253L257.553 47.7372C257.486 47.6321 257.423 47.5242 257.351 47.4191ZM253.796 49.5768V49.5712C253.733 49.4661 253.674 49.3527 253.611 49.2421L253.284 49.4412H253.282L252.966 49.6321C253.03 49.7428 253.091 49.8534 253.149 49.9613H253.152V49.9668C253.218 50.0802 253.282 50.1854 253.337 50.2905L253.655 50.0996L253.981 49.9032C253.923 49.7953 253.863 49.6847 253.796 49.5768ZM262.137 63.8617C262.095 63.8977 262.057 63.9364 262.023 63.9779C262.151 64.1549 262.275 64.3292 262.4 64.4979C262.43 64.426 262.474 64.3624 262.535 64.3098L262.137 63.8617ZM250.429 43.3361C250.369 43.2227 250.313 43.1148 250.255 43.0014L249.931 43.1978C249.99 43.3112 250.045 43.4246 250.103 43.5325C250.164 43.6487 250.216 43.7538 250.277 43.8672L250.604 43.6681C250.543 43.5574 250.488 43.4495 250.429 43.3361ZM251.94 46.1937C251.879 46.0802 251.818 45.9724 251.763 45.8589L251.434 46.0581L251.116 46.2517C251.176 46.3624 251.232 46.4758 251.293 46.5837H251.295C251.359 46.6999 251.414 46.8022 251.472 46.9129L251.791 46.722L252.12 46.5228C252.059 46.4122 251.998 46.3071 251.943 46.1937H251.94Z" fill="white"/>
<path d="M289.026 87.9557C288.993 87.9032 288.965 87.8561 288.929 87.8091C287.958 86.2738 286.495 85.0484 284.697 84.3983C284.625 84.3734 284.55 84.3458 284.478 84.3236C284.254 84.2462 284.022 84.177 283.784 84.1217C282.647 83.8423 281.507 83.8091 280.414 83.9862C280.362 83.9917 280.312 84.0028 280.257 84.0138C277.059 84.5947 274.331 86.9958 273.512 90.3541C273.288 91.2531 273.222 92.1494 273.288 93.0235C273.294 93.0733 273.294 93.1231 273.302 93.1701C273.598 96.3402 275.678 99.1563 278.735 100.321C278.807 100.349 278.882 100.373 278.957 100.398C279.217 100.49 279.477 100.567 279.748 100.633C284.301 101.745 288.91 98.9516 290.022 94.3983C290.08 94.1632 290.127 93.9253 290.163 93.6874C290.177 93.6127 290.188 93.5353 290.194 93.4606C290.456 91.4965 290.005 89.5685 289.026 87.9557ZM289.513 92.6169C289.496 93.1508 289.424 93.6791 289.294 94.2158C289.062 95.159 288.661 96.0277 288.144 96.7773H288.138C288.138 96.7773 288.124 96.7967 288.119 96.8077C286.34 99.3499 283.12 100.68 279.922 99.9004C279.344 99.7593 278.799 99.5574 278.29 99.3001C278.21 99.2614 278.118 99.2116 278.038 99.1673C275.803 97.9447 274.315 95.6763 274.057 93.159C274.054 93.112 274.049 93.0622 274.046 93.0124C273.977 92.2019 274.035 91.3693 274.24 90.5366C274.655 88.8437 275.606 87.4191 276.857 86.3983L276.873 86.3873H276.876C277.963 85.491 279.272 84.9073 280.683 84.7137C280.738 84.7054 280.785 84.6999 280.843 84.6916C281.275 84.6362 281.712 84.6252 282.157 84.6473C282.359 84.6611 282.558 84.6667 282.763 84.6916C282.821 84.6999 282.882 84.7109 282.94 84.7165C283.023 84.733 283.112 84.7413 283.197 84.7607C283.341 84.7884 283.468 84.8188 283.61 84.852C283.726 84.8797 283.839 84.9073 283.953 84.9433C283.972 84.9516 283.994 84.9571 284.013 84.9627C284.099 84.9903 284.182 85.0124 284.265 85.0429C284.298 85.0512 284.332 85.065 284.365 85.0761C284.445 85.1037 284.531 85.1342 284.611 85.1674C284.641 85.1784 284.675 85.1922 284.705 85.2061C284.799 85.2476 284.899 85.2891 284.996 85.3306C285.037 85.3527 285.084 85.3721 285.126 85.3942C285.211 85.4329 285.297 85.4744 285.377 85.5187C286.445 86.0802 287.339 86.8741 288.025 87.8202C288.061 87.8672 288.097 87.9198 288.13 87.9696C289.01 89.2337 289.505 90.7552 289.516 92.3402C289.519 92.4343 289.516 92.5228 289.513 92.6169Z" fill="white"/>
<path d="M275.747 94.4896C275.769 94.4758 275.792 94.4647 275.814 94.4536C276.19 94.2738 276.641 94.4343 276.818 94.8077C278.738 98.8271 282.99 97.6348 283.169 97.5823C283.571 97.4661 283.988 97.6957 284.104 98.094C284.221 98.4923 283.991 98.9128 283.593 99.029C281.642 99.5988 277.432 99.5878 275.457 95.4578C275.288 95.1065 275.418 94.686 275.744 94.4896H275.747Z" fill="white"/>
<path d="M274.811 93.917C274.598 93.5657 274.709 93.1093 275.06 92.8963C275.412 92.6833 275.868 92.7939 276.081 93.1452C276.294 93.4965 276.184 93.953 275.832 94.166C275.481 94.379 275.024 94.2683 274.811 93.917Z" fill="white"/>
<path d="M239.887 73.9668C239.331 73.4495 238.568 72.7441 238.363 71.7787C238.263 71.3112 238.308 70.8603 238.352 70.4232C238.371 70.2296 238.391 70.047 238.393 69.8672C238.407 69.4274 238.297 68.8879 237.945 68.6998C237.893 68.6722 237.837 68.65 237.779 68.6279C237.638 68.5698 237.461 68.5007 237.306 68.3623C237.054 68.141 236.958 67.8506 236.88 67.6127C236.83 67.4605 236.783 67.3195 236.717 67.2614C236.681 67.2309 236.612 67.1978 236.537 67.1618C236.421 67.1065 236.277 67.0401 236.147 66.9239C235.561 66.4066 235.765 65.5076 236.272 64.8879L236.402 64.7303C236.651 64.4343 236.908 64.13 236.872 63.8672C236.833 63.5823 236.507 63.4135 235.973 63.1701C235.782 63.0816 235.583 62.9903 235.4 62.8824C234.994 62.6445 234.913 62.3513 234.916 62.1466C234.922 61.8534 235.107 61.657 235.215 61.5408C235.685 61.0428 235.973 60.3762 236.014 59.704L236.911 59.7593C236.858 60.6417 236.496 61.4827 235.893 62.13C236.028 62.2047 236.183 62.2766 236.346 62.3513C236.927 62.6168 237.652 62.9488 237.76 63.7455C237.848 64.4011 237.425 64.9045 237.085 65.3056L236.963 65.4523C236.72 65.7482 236.612 66.1355 236.739 66.2462C236.775 66.2766 236.844 66.3098 236.919 66.3457C237.035 66.4011 237.179 66.4675 237.309 66.5836C237.558 66.8049 237.655 67.0954 237.729 67.3305C237.779 67.4827 237.826 67.6265 237.893 67.6846C237.934 67.7206 238.02 67.7538 238.108 67.7925C238.194 67.8285 238.28 67.8617 238.363 67.9059C238.966 68.2296 239.312 68.9709 239.284 69.8921C239.279 70.1023 239.257 70.3098 239.237 70.509C239.198 70.8935 239.162 71.2586 239.234 71.5906C239.37 72.224 239.882 72.7413 240.49 73.3056L239.879 73.964L239.887 73.9668Z" fill="white"/>
<path d="M279.809 43.3721L279.748 43.0567C279.577 42.1549 279.508 41.2365 279.541 40.3181L277.029 40.639C276.855 40.6611 276.611 40.6916 276.379 40.5864C275.886 40.3624 275.814 39.7289 275.997 39.2476C276.041 39.1314 276.097 39.018 276.149 38.9046C276.246 38.7026 276.34 38.5118 276.343 38.3292C276.351 37.9779 276.022 37.6791 275.693 37.5657C275.289 37.4274 274.827 37.4689 274.379 37.5076L274.326 36.9101C274.813 36.8658 275.364 36.816 275.889 36.9986C276.406 37.1757 276.96 37.6736 276.946 38.3402C276.938 38.6528 276.808 38.9239 276.691 39.1646C276.644 39.2614 276.597 39.3582 276.559 39.4578C276.476 39.6791 276.487 39.9751 276.628 40.0387C276.705 40.0747 276.844 40.0553 276.954 40.0415L280.183 39.6266L280.158 39.9889C280.1 40.8686 280.141 41.7566 280.282 42.6252C281.427 42.3596 282.6 42.2683 283.773 42.3596L283.729 42.9571C282.515 42.8631 281.3 42.9737 280.122 43.2835L279.812 43.3665L279.809 43.3721Z" fill="white"/>
<path d="M264.864 78.2877L264.266 78.3236C264.324 79.3361 264.311 80.3623 264.219 81.3748C264.197 81.6404 264.164 81.8921 264.04 82.0691C263.832 82.3651 263.417 82.4066 262.936 82.4564C262.554 82.4951 262.158 82.5366 261.804 82.7137L261.66 82.7856L261.276 85.8921C261.248 86.0996 261.221 86.2794 261.127 86.3789C261.027 86.4813 260.833 86.5145 260.626 86.5477C260.562 86.556 260.501 86.567 260.438 86.5809C259.594 86.7469 258.883 87.4191 258.598 88.2268C258.498 88.5007 258.451 88.7911 258.463 89.0816C258.471 89.3444 258.601 89.5325 258.806 89.5823C258.833 89.5878 258.864 89.5933 258.891 89.5933C259.007 89.5933 259.121 89.5325 259.19 89.4301C259.221 89.3859 259.243 89.3388 259.251 89.289C259.276 89.1839 259.259 89.076 259.198 88.993C259.165 88.9433 259.118 88.9045 259.066 88.8796C259.121 88.0747 259.757 87.3278 260.557 87.1673C260.609 87.1563 260.667 87.148 260.723 87.1369C260.988 87.0954 261.32 87.0401 261.558 86.7911C261.799 86.5422 261.84 86.1936 261.871 85.964L262.214 83.1895C262.443 83.1092 262.714 83.0816 262.997 83.0539C263.544 82.9958 264.164 82.9322 264.529 82.4149C264.739 82.1161 264.786 81.7648 264.817 81.4273C264.908 80.3872 264.925 79.3305 264.864 78.2877ZM258.709 89.3361C258.667 89.2752 258.637 89.1756 258.695 89.0926C258.734 89.0345 258.803 88.9986 258.872 88.993L258.985 89.4439C258.883 89.4688 258.77 89.4246 258.709 89.3361Z" fill="white"/>
<path d="M278.569 67.574L278.262 67.2089C277.52 66.3292 276.674 65.538 275.744 64.8631C275.161 64.4371 274.331 64 273.711 64.3375C273.556 64.4205 273.407 64.556 273.249 64.6971C272.925 64.9876 272.557 65.314 272.046 65.2559C271.542 65.195 271.216 64.7635 271.019 64.5035L269.658 62.6943L270.137 62.3347L271.498 64.1438C271.683 64.39 271.885 64.6335 272.115 64.6611C272.342 64.6888 272.544 64.5256 272.848 64.2517C273.025 64.0941 273.207 63.9308 273.423 63.8119C274.131 63.4274 275.058 63.6238 276.096 64.379C276.953 65.0041 277.744 65.7234 278.453 66.5145C279.009 65.8451 280.029 65.7068 280.898 65.6681L286.284 65.4329L286.312 66.0304L280.926 66.2656C280.085 66.3015 279.081 66.4343 278.765 67.1369L278.571 67.5712L278.569 67.574Z" fill="white"/>
<path d="M254.941 61.9751L253.084 59.7842L253.123 59.6349C253.223 59.2393 252.968 58.8022 252.296 58.2213L250.982 57.0871C250.899 57.0152 250.747 56.8824 250.708 56.675C250.664 56.4205 250.81 56.2268 250.907 56.0996C251.131 55.8036 251.308 55.4744 251.427 55.1231C251.469 54.9986 251.516 54.8409 251.505 54.6999C251.491 54.5616 251.419 54.4177 251.342 54.2849C250.902 53.5131 250.224 52.8631 249.436 52.4537L249.712 51.9225C250.603 52.3845 251.366 53.1176 251.862 53.9889C251.967 54.1715 252.077 54.3928 252.1 54.6445C252.124 54.899 252.055 55.1397 251.994 55.3195C251.853 55.7289 251.649 56.1134 251.386 56.462C251.361 56.4924 251.325 56.5422 251.308 56.5726C251.328 56.5947 251.361 56.6224 251.375 56.6335L252.689 57.7676C253.012 58.047 253.84 58.7607 253.735 59.6238L255.4 61.5906L254.943 61.9779L254.941 61.9751Z" fill="white"/>
<path d="M280.676 82.26C280.059 81.1424 279.52 79.9696 279.071 78.7718L279.055 78.6943C279.005 78.1604 279.387 77.8257 279.721 77.5297C279.901 77.372 280.073 77.2227 280.17 77.0567C280.38 76.6971 280.233 76.2075 279.995 75.881C279.766 75.5657 279.445 75.3195 279.105 75.0595C279.024 74.9986 278.944 74.935 278.864 74.8714C278.692 74.7358 278.499 74.5698 278.371 74.343C278.255 74.1355 278.2 73.9032 278.147 73.6736C278.051 73.2669 277.995 73.1203 277.865 73.1037L277.945 72.509C278.507 72.5837 278.637 73.1341 278.731 73.5352C278.775 73.7234 278.82 73.9142 278.897 74.0498C278.972 74.1826 279.107 74.296 279.24 74.4011C279.318 74.4619 279.395 74.5228 279.475 74.5837C279.835 74.8575 280.206 75.1424 280.485 75.5297C280.914 76.1217 280.994 76.8382 280.692 77.361C280.546 77.6099 280.33 77.8008 280.123 77.9834C279.835 78.2351 279.655 78.4039 279.655 78.6086C280.089 79.7621 280.609 80.8935 281.207 81.9723L280.684 82.2628L280.676 82.26Z" fill="white"/>
<path d="M279.524 107.972L279.137 107.516L281.607 105.416L280.141 104.481L280.462 103.975L282.614 105.347L279.524 107.972Z" fill="white"/>
<path d="M293.015 108C292.963 108 292.913 107.989 292.863 107.97C292.733 107.914 292.575 107.781 292.548 107.455C292.514 107.051 292.592 106.667 292.669 106.296C292.719 106.055 292.766 105.828 292.783 105.604C292.846 104.705 292.379 103.781 291.618 103.3L291.552 103.259C291.353 103.137 291.106 102.985 290.998 102.697C290.86 102.326 291.043 101.989 291.187 101.721C291.214 101.671 291.242 101.621 291.264 101.571C291.496 101.098 291.441 100.492 291.128 100.066L291.61 99.7123C292.05 100.313 292.127 101.165 291.801 101.834C291.773 101.889 291.743 101.947 291.712 102.003C291.61 102.194 291.516 102.371 291.557 102.49C291.59 102.584 291.729 102.667 291.862 102.75L291.933 102.794C292.877 103.389 293.455 104.537 293.375 105.649C293.355 105.914 293.303 106.171 293.253 106.418C293.181 106.763 293.115 107.087 293.142 107.405C293.145 107.452 293.153 107.469 293.153 107.469C293.151 107.461 293.131 107.436 293.095 107.419C293.021 107.386 292.916 107.397 292.868 107.483C292.816 107.577 292.846 107.71 292.94 107.776L293.289 107.289C293.444 107.4 293.485 107.607 293.389 107.779C293.308 107.92 293.159 108.003 293.012 108.003L293.015 108Z" fill="white"/>
<path d="M262.399 64.4979C262.313 64.6999 262.322 64.9793 262.346 65.3638C262.374 65.8174 262.407 66.3347 262.133 66.7607C261.926 67.0816 261.602 67.2559 261.315 67.4108C261.171 67.491 261.032 67.5629 260.916 67.6515C260.482 67.9751 260.272 68.5865 260.416 69.1093C260.424 69.1452 260.438 69.1812 260.449 69.2172C260.499 69.3776 260.559 69.5768 260.523 69.7953C260.432 70.3292 259.929 70.4813 259.522 70.6003C259.348 70.6528 259.168 70.7054 259.041 70.7801L258.736 70.2656C258.927 70.1521 259.143 70.0885 259.35 70.0277C259.727 69.9143 259.907 69.8451 259.931 69.693C259.945 69.6183 259.912 69.5104 259.876 69.3942C259.862 69.3527 259.848 69.3112 259.837 69.2669C259.63 68.5062 259.926 67.6432 260.559 67.1701C260.709 67.0567 260.872 66.971 261.03 66.8852C261.276 66.7524 261.505 66.6279 261.63 66.4371C261.799 66.177 261.774 65.8008 261.749 65.3997C261.716 64.9184 261.683 64.3762 262.023 63.9779C262.056 63.9364 262.095 63.8977 262.136 63.8617L262.535 64.3098C262.474 64.3624 262.429 64.426 262.399 64.4979Z" fill="white"/>
<path d="M223.661 58.3126L223.363 57.7925C223.363 57.7925 223.374 57.7483 223.357 57.6985C223.34 57.6459 223.313 57.621 223.305 57.6183L223.105 57.6404L223.011 57.4661C222.773 57.0318 222.942 56.5284 223.183 56.2019C223.299 56.0415 223.435 55.9059 223.565 55.7732C223.675 55.6625 223.778 55.5574 223.863 55.4467C224.201 55.0097 224.292 54.3956 224.093 53.8783L224.652 53.6653C224.923 54.3707 224.798 55.2144 224.336 55.8119C224.226 55.953 224.104 56.0775 223.988 56.1964C223.869 56.3181 223.755 56.4315 223.664 56.556C223.559 56.6999 223.482 56.8935 223.498 57.0539C223.692 57.1203 223.852 57.2863 223.927 57.5159C224.032 57.8423 223.927 58.1632 223.661 58.3154V58.3126Z" fill="white"/>
<path d="M274.627 26.4592L274.162 26.0802L275.258 24.7441C275.401 24.5698 275.581 24.3513 275.85 24.2351C276.312 24.036 276.798 24.2158 277.227 24.3762C277.703 24.5533 277.944 24.6196 278.085 24.4564L278.536 24.8492C278.107 25.3416 277.504 25.1176 277.02 24.9378C276.68 24.8105 276.325 24.6805 276.088 24.7828C275.952 24.8409 275.83 24.9903 275.722 25.1231L274.627 26.462V26.4592Z" fill="white"/>
<path d="M217.573 35.4025C216.89 33.3748 216.785 31.1231 217.194 28.9737C217.391 27.9059 217.667 26.8824 217.858 25.8838C218.046 24.8879 218.162 23.9087 218.016 22.9958L217.994 22.8243L217.958 22.6556C217.93 22.5449 217.913 22.4315 217.877 22.3209C217.814 22.1023 217.734 21.8838 217.639 21.668C217.457 21.2337 217.211 20.8077 216.942 20.3845C216.674 19.9585 216.372 19.538 216.074 19.1009C215.769 18.6639 215.465 18.213 215.188 17.7316C214.912 17.2531 214.663 16.7413 214.483 16.1991C214.395 15.9281 214.323 15.6487 214.273 15.3665C214.223 15.0788 214.206 14.7884 214.212 14.5007C214.217 14.213 214.256 13.9281 214.32 13.6514C214.383 13.3748 214.475 13.1037 214.605 12.852C214.732 12.6003 214.884 12.3624 215.072 12.1577C215.263 11.9557 215.476 11.7814 215.711 11.6514C215.343 12.0415 215.103 12.5062 214.992 12.9931C214.937 13.2365 214.901 13.4827 214.895 13.7289C214.89 13.9751 214.898 14.2213 214.94 14.4592C214.978 14.6998 215.028 14.935 215.108 15.159C215.188 15.3886 215.28 15.6127 215.388 15.834C215.606 16.2711 215.872 16.6888 216.168 17.0982C216.314 17.3029 216.469 17.5048 216.63 17.7068C216.79 17.9087 216.951 18.1106 217.117 18.3153C217.451 18.722 217.783 19.148 218.107 19.5989C218.425 20.0525 218.727 20.5394 218.973 21.0705C219.097 21.3361 219.203 21.6155 219.288 21.9032C219.335 22.047 219.363 22.1936 219.399 22.3375L219.449 22.556L219.482 22.7773C219.565 23.3665 219.576 23.9585 219.518 24.5283C219.46 25.0982 219.357 25.6487 219.227 26.1825C219.097 26.7164 218.945 27.2337 218.788 27.7399C218.633 28.2462 218.469 28.7441 218.326 29.2393C217.731 31.1978 217.501 33.2642 217.573 35.3997V35.4025Z" fill="white"/>
<path d="M232.802 34.0305C232.727 33.2725 232.708 32.5201 232.744 31.7566C232.782 30.9959 232.89 30.2241 233.103 29.4634C233.211 29.0789 233.338 28.7276 233.43 28.4039C233.515 28.0775 233.579 27.7898 233.557 27.5187C233.546 27.2421 233.496 26.9737 233.374 26.6999C233.261 26.426 233.103 26.1494 232.915 25.8755C232.73 25.5989 232.511 25.3195 232.284 25.0374C232.063 24.7524 231.82 24.462 231.59 24.1522C231.125 23.5436 230.674 22.8022 230.447 22.0222C230.204 21.2448 230.121 20.4288 230.193 19.6404C230.268 18.852 230.503 18.0885 230.898 17.4385C230.707 18.9433 230.94 20.3762 231.535 21.5989C231.828 22.2158 232.212 22.7303 232.688 23.2725L233.416 24.1079C233.659 24.4011 233.908 24.7027 234.141 25.0429C234.367 25.3859 234.583 25.7566 234.741 26.1771C234.899 26.5948 234.984 27.0706 234.962 27.5381C234.962 27.7704 234.918 28.0083 234.865 28.2241C234.813 28.4426 234.738 28.6418 234.663 28.8327C234.511 29.2116 234.337 29.5408 234.199 29.8589C233.908 30.498 233.676 31.1812 233.457 31.8838C233.239 32.5865 233.045 33.3112 232.799 34.0332L232.802 34.0305Z" fill="white"/>
<path d="M227.731 51.0373C227.092 50.0581 226.779 48.8686 226.752 47.6653C226.746 47.3665 226.757 47.0567 226.788 46.7635C226.812 46.4675 226.857 46.1853 226.893 45.9115C226.929 45.6376 226.97 45.3748 226.987 45.1231C227.009 44.8714 227.02 44.6307 227.003 44.4066C226.992 44.1826 226.956 43.9751 226.895 43.7842C226.84 43.5934 226.741 43.4108 226.61 43.195C226.483 42.982 226.32 42.758 226.162 42.5035C226.002 42.249 225.836 41.964 225.72 41.6266C225.601 41.2946 225.554 40.8963 225.62 40.545C225.681 40.1964 225.808 39.906 225.938 39.6459C226.193 39.1231 226.503 38.7054 226.472 38.1107C226.646 38.3486 226.718 38.675 226.718 38.982C226.718 39.2918 226.671 39.5878 226.635 39.8645C226.597 40.1383 226.575 40.3956 226.597 40.6086C226.597 40.6639 226.616 40.7109 226.622 40.758C226.633 40.805 226.649 40.852 226.663 40.8963C226.699 40.9876 226.741 41.0761 226.796 41.1674C226.904 41.3472 227.053 41.5325 227.222 41.7317C227.396 41.9308 227.581 42.1466 227.775 42.3983C227.872 42.5201 227.963 42.6611 228.049 42.8105C228.093 42.8824 228.132 42.9654 228.173 43.0456C228.212 43.1259 228.245 43.2116 228.279 43.2946C228.403 43.6349 228.467 43.9862 228.486 44.3209C228.503 44.6584 228.481 44.982 228.442 45.2891C228.398 45.5961 228.342 45.8866 228.276 46.166L228.079 46.9737C228.016 47.2338 227.96 47.4855 227.916 47.7455C227.725 48.7884 227.689 49.87 227.736 51.0346L227.731 51.0373Z" fill="white"/>
<path d="M264.264 24.6307C264.948 22.603 265.053 20.3513 264.643 18.2019C264.447 17.1341 264.17 16.1106 263.979 15.112C263.791 14.1162 263.675 13.1369 263.822 12.224L263.844 12.0525L263.88 11.8838C263.908 11.7731 263.924 11.6597 263.96 11.5491C264.024 11.3305 264.104 11.112 264.198 10.8962C264.381 10.4619 264.627 10.0359 264.895 9.61269C265.163 9.18669 265.465 8.76622 265.764 8.32915C266.068 7.89209 266.372 7.44119 266.649 6.95986C266.926 6.4813 267.175 5.96954 267.354 5.42736C267.443 5.15626 267.515 4.87687 267.565 4.59471C267.614 4.30702 267.631 4.01657 267.626 3.72888C267.62 3.44119 267.581 3.15626 267.518 2.87964C267.454 2.60301 267.363 2.33192 267.233 2.08019C267.105 1.82846 266.953 1.59057 266.765 1.38586C266.574 1.18393 266.361 1.00965 266.126 0.879639C266.494 1.26968 266.735 1.73441 266.845 2.22127C266.901 2.4647 266.937 2.7109 266.942 2.95709C266.948 3.20329 266.939 3.44949 266.898 3.68738C266.859 3.92805 266.809 4.16318 266.729 4.38725C266.649 4.61684 266.558 4.84091 266.45 5.06221C266.231 5.49928 265.966 5.91698 265.67 6.32639C265.523 6.53109 265.368 6.73303 265.208 6.93496C265.047 7.1369 264.887 7.33884 264.721 7.54354C264.386 7.95018 264.054 8.37618 263.73 8.82708C263.41 9.28074 263.111 9.7676 262.865 10.2987C262.74 10.5643 262.635 10.8437 262.549 11.1314C262.502 11.2752 262.475 11.4218 262.439 11.5657L262.389 11.7842L262.356 12.0055C262.273 12.5947 262.262 13.1867 262.32 13.7565C262.378 14.3264 262.48 14.8769 262.61 15.4108C262.74 15.9446 262.892 16.4619 263.05 16.9682C263.205 17.4744 263.368 17.9723 263.512 18.4675C264.107 20.426 264.336 22.4924 264.264 24.6279V24.6307Z" fill="white"/>
<path d="M246.562 16.5947C246.637 15.8368 246.656 15.0844 246.621 14.3209C246.582 13.5602 246.474 12.7884 246.261 12.0249C246.153 11.6404 246.026 11.2891 245.934 10.9654C245.849 10.639 245.785 10.3513 245.807 10.0802C245.818 9.8036 245.868 9.53527 245.99 9.26141C246.103 8.98755 246.261 8.71093 246.449 8.43707C246.634 8.16044 246.853 7.88105 247.08 7.59889C247.301 7.31397 247.544 7.02351 247.774 6.71369C248.239 6.10512 248.69 5.36376 248.917 4.58368C249.16 3.80636 249.243 2.99032 249.171 2.20194C249.096 1.41355 248.861 0.650069 248.466 0C248.657 1.50484 248.424 2.93776 247.829 4.16044C247.536 4.77732 247.152 5.29184 246.676 5.83402L245.948 6.66943C245.705 6.96266 245.456 7.26418 245.223 7.60443C244.997 7.94744 244.781 8.31812 244.623 8.73859C244.466 9.15629 244.38 9.63209 244.402 10.0996C244.402 10.3319 244.446 10.5698 244.499 10.7856C244.551 11.0041 244.626 11.2033 244.701 11.3942C244.853 11.7732 245.027 12.1024 245.165 12.4205C245.456 13.0595 245.688 13.7427 245.907 14.4454C246.125 15.148 246.319 15.8728 246.565 16.5947H246.562Z" fill="white"/>
<path d="M257.364 36.5643C258.003 35.5851 258.316 34.3956 258.344 33.1923C258.349 32.8935 258.338 32.5837 258.308 32.2905C258.283 31.9945 258.238 31.7123 258.203 31.4385C258.167 31.1646 258.125 30.9018 258.108 30.6501C258.086 30.3984 258.075 30.1577 258.092 29.9336C258.103 29.7096 258.139 29.5021 258.2 29.3112C258.255 29.1203 258.355 28.9378 258.485 28.722C258.612 28.509 258.775 28.2849 258.933 28.0304C259.093 27.7759 259.259 27.491 259.375 27.1535C259.494 26.8216 259.541 26.4233 259.475 26.0719C259.414 25.7234 259.287 25.4329 259.157 25.1729C258.902 24.6501 258.593 24.2324 258.623 23.6376C258.449 23.8755 258.377 24.202 258.377 24.509C258.377 24.8188 258.424 25.1148 258.46 25.3914C258.499 25.6653 258.521 25.9226 258.499 26.1356C258.499 26.1909 258.479 26.2379 258.474 26.2849C258.463 26.332 258.446 26.379 258.432 26.4232C258.396 26.5145 258.355 26.6031 258.299 26.6943C258.191 26.8741 258.042 27.0595 257.873 27.2587C257.699 27.4578 257.514 27.6736 257.32 27.9253C257.223 28.047 257.132 28.1881 257.046 28.3375C257.002 28.4094 256.963 28.4924 256.922 28.5726C256.883 28.6528 256.85 28.7386 256.817 28.8216C256.692 29.1618 256.628 29.5132 256.609 29.8479C256.592 30.1854 256.615 30.509 256.653 30.8161C256.698 31.1231 256.753 31.4136 256.819 31.693L257.016 32.5007C257.079 32.7607 257.135 33.0125 257.179 33.2725C257.37 34.3154 257.406 35.397 257.359 36.5616L257.364 36.5643Z" fill="white"/>
<path d="M240.57 95.2054L240.7 95.032C240.725 94.9985 240.773 94.9894 240.807 95.0137L241.238 95.3362C241.271 95.3605 241.277 95.4092 241.253 95.4426L240.934 95.8715C240.916 95.8958 240.889 95.908 240.858 95.9019L240.187 95.7894C240.156 95.7833 240.132 95.762 240.126 95.7316L240.002 95.1658C239.989 95.105 240.05 95.0502 240.108 95.0746L240.478 95.2297C240.512 95.2419 240.548 95.2297 240.57 95.2023V95.2054Z" fill="white"/>
</g>
<path d="M298.668 76.2823L298.122 76.6643C298.014 76.7403 297.988 76.8909 298.064 76.9996L299.044 78.3995C299.12 78.5082 299.271 78.5349 299.379 78.459L300.724 77.5172C300.799 77.4647 300.836 77.3761 300.823 77.2858L300.505 75.1673C300.491 75.0725 300.423 74.9959 300.33 74.9708L298.582 74.4949C298.392 74.4436 298.225 74.6278 298.297 74.8119L298.755 76.0019C298.794 76.104 298.759 76.2208 298.669 76.2839L298.668 76.2823Z" fill="white"/>
<path d="M312.272 82.2399L311.972 82.03C311.913 81.9883 311.898 81.9056 311.94 81.8459L312.479 81.0768C312.521 81.0171 312.603 81.0024 312.663 81.0441L313.402 81.5615C313.443 81.5904 313.463 81.639 313.456 81.6886L313.281 82.8524C313.274 82.9045 313.236 82.9466 313.185 82.9604L312.225 83.2218C312.12 83.25 312.029 83.1488 312.068 83.0477L312.32 82.3939C312.341 82.3378 312.322 82.2737 312.273 82.239L312.272 82.2399Z" fill="white"/>
<path d="M222 241H199.6V214.4L133.6 214V197.8L202 109H222.2L222 195H240.2V214.4H222V241ZM199.8 143.2L161.4 194.8H199.6L199.8 143.2Z" fill="white"/>
<path d="M485 241H462.6V214.4L396.6 214V197.8L465 109H485.2L485 195H503.2V214.4H485V241ZM462.8 143.2L424.4 194.8H462.6L462.8 143.2Z" fill="white"/>
<g clip-path="url(#clip1_315_1472)">
<path d="M319.1 105.563C315.758 105.563 312.471 105.779 309.25 106.2L308.338 110.134L310.248 111.296L310.01 115.248L309.101 116.873L305.543 115.248L303.308 113.852L299.498 117.801H296.135L291.564 116.64L287.605 120.589L283.18 117.337L279.692 117.055C261.897 128.775 250.125 148.756 250.004 173.68C249.605 213.515 281.356 241 318.899 241C356.442 241 386.797 212.718 386.998 173.68C387.195 133.645 357.242 105.563 319.1 105.563ZM318.899 220.485C293.939 220.485 273.769 200.768 273.568 173.68C273.568 145.198 294.538 125.878 319.1 125.878C343.661 125.878 363.433 144.998 363.433 173.68C363.233 200.768 343.661 220.485 318.899 220.485Z" fill="white"/>
<path d="M276.808 112.145H277.803C278 112.145 278.161 112.306 278.161 112.503V115.041C278.161 115.238 278 115.399 277.803 115.399H275.352C275.215 115.399 275.093 115.323 275.032 115.202L273.606 112.354C273.542 112.227 273.561 112.075 273.652 111.966L275.382 109.897C275.571 109.673 275.932 109.755 276.002 110.04L276.462 111.878C276.501 112.036 276.644 112.148 276.808 112.148V112.145Z" fill="white"/>
<path d="M282.378 111.056L282.633 110.716C282.685 110.65 282.776 110.634 282.843 110.683L283.688 111.314C283.755 111.362 283.767 111.456 283.716 111.523L283.089 112.357C283.056 112.403 282.998 112.427 282.943 112.418L281.632 112.196C281.575 112.187 281.529 112.142 281.514 112.084L281.268 110.98C281.24 110.862 281.362 110.759 281.474 110.804L282.201 111.105C282.265 111.132 282.338 111.111 282.381 111.053L282.378 111.056Z" fill="white"/>
<path d="M299.674 112.309L299.804 112.136C299.829 112.102 299.877 112.093 299.911 112.118L300.343 112.439C300.376 112.463 300.382 112.512 300.358 112.545L300.039 112.973C300.02 112.997 299.993 113.009 299.963 113.003L299.291 112.891C299.26 112.885 299.236 112.864 299.23 112.833L299.105 112.269C299.093 112.209 299.154 112.154 299.212 112.178L299.583 112.333C299.616 112.345 299.652 112.333 299.674 112.306V112.309Z" fill="white"/>
<path d="M303.301 100.368L303.349 100.786C303.358 100.868 303.301 100.944 303.222 100.956L302.175 101.081C302.093 101.09 302.02 101.029 302.011 100.947L301.89 99.9129C301.884 99.8553 301.908 99.8007 301.953 99.7673L303.057 99.0242C303.106 98.9909 303.17 98.9909 303.218 99.0242L304.158 99.6551C304.258 99.7218 304.243 99.8795 304.131 99.925L303.395 100.21C303.331 100.234 303.291 100.301 303.301 100.371V100.368Z" fill="white"/>
<path d="M258.913 106.272L258.613 106.062C258.553 106.02 258.539 105.937 258.581 105.877L259.119 105.108C259.161 105.049 259.244 105.034 259.304 105.076L260.042 105.593C260.083 105.622 260.104 105.671 260.097 105.72L259.922 106.884C259.914 106.936 259.877 106.978 259.826 106.992L258.866 107.253C258.761 107.282 258.669 107.18 258.709 107.079L258.96 106.426C258.982 106.369 258.963 106.305 258.913 106.271L258.913 106.272Z" fill="white"/>
</g>
<path d="M304.449 92.2273L304.552 92.0354C304.571 91.9984 304.61 91.9883 304.636 92.0152L304.976 92.3721C305.003 92.399 305.008 92.4529 304.988 92.4899L304.737 92.9646C304.722 92.9916 304.701 93.005 304.677 92.9983L304.147 92.8737C304.123 92.867 304.104 92.8434 304.099 92.8098L304.001 92.1836C303.992 92.1162 304.04 92.0556 304.085 92.0826L304.377 92.2542C304.404 92.2677 304.432 92.2542 304.449 92.2239V92.2273Z" fill="white"/>
<path d="M325.449 87.2273L325.552 87.0354C325.571 86.9984 325.61 86.9883 325.636 87.0152L325.976 87.3721C326.003 87.399 326.008 87.4529 325.988 87.4899L325.737 87.9646C325.722 87.9916 325.701 88.005 325.677 87.9983L325.147 87.8737C325.123 87.867 325.104 87.8434 325.099 87.8098L325.001 87.1836C324.992 87.1162 325.04 87.0556 325.085 87.0826L325.377 87.2542C325.404 87.2677 325.432 87.2542 325.449 87.2239V87.2273Z" fill="white"/>
<path d="M105 336H97.98V296.4H113.46C125.34 296.4 128.22 303.48 128.22 308.76C128.22 315 124.2 320.64 113.46 320.64H105V336ZM105 302.52V314.52H113.46C118.44 314.52 121.14 312.9 121.14 308.76C121.14 305.22 119.1 302.52 113.4 302.52H105ZM144.918 336.6C136.158 336.66 129.738 329.7 129.738 320.94C129.738 310.86 136.158 304.92 144.558 304.98C149.898 304.98 155.118 307.92 156.858 312.96V305.58H163.878V336H156.858V328.5C155.238 333.3 150.138 336.6 144.918 336.6ZM146.658 330.72C151.878 330.66 156.558 326.64 156.558 320.88C156.558 314.58 151.938 310.86 146.658 310.8C141.258 310.74 136.758 314.28 136.758 320.88C136.758 326.76 141.378 330.78 146.658 330.72ZM183.071 351C173.351 351 167.651 347.34 167.531 340.98C167.411 336.96 170.171 333.9 173.231 332.34C172.031 331.56 171.371 330.6 171.431 329.04C171.491 327.42 172.571 325.98 174.191 324.78C171.431 322.98 169.871 319.98 169.871 316.62C169.871 309.48 174.911 304.98 183.371 304.98C185.831 304.98 187.631 305.28 188.831 305.52H199.031V310.74H194.111C195.671 311.94 196.451 314.28 196.451 316.32C196.451 323.28 191.411 327.72 183.191 327.72C181.931 327.72 180.071 327.48 179.231 327.36C177.731 328.08 176.951 329.1 176.891 330C176.891 331.56 178.571 331.8 180.671 331.8H186.851C193.811 331.8 199.631 334.32 199.511 340.86C199.451 347.88 193.391 351 183.071 351ZM183.191 321.96C187.691 321.96 190.031 319.92 190.031 316.32C190.031 312.9 187.691 310.74 183.191 310.74C178.451 310.74 176.291 312.84 176.291 316.5C176.291 319.8 178.451 321.96 183.191 321.96ZM182.591 345.84C189.671 345.84 193.031 344.34 193.091 341.16C193.151 337.86 190.751 336.24 185.891 336.24H180.731C176.891 336.24 173.831 337.86 173.951 341.28C174.071 344.46 176.951 345.84 182.591 345.84ZM217.129 336.6C208.609 336.6 200.929 330.3 200.929 320.88C200.929 310.5 208.609 304.98 217.129 304.98C225.409 304.98 232.129 310.26 232.969 319.62C233.089 320.46 233.089 321.48 232.969 322.38L207.589 322.44C208.129 327.42 212.629 330.78 217.069 330.78C220.609 330.84 223.969 329.28 225.709 326.22L230.989 328.92C228.289 333.72 223.069 336.6 217.129 336.6ZM208.069 318.42L226.369 318.36C225.589 313.56 221.389 310.62 217.129 310.68C212.869 310.68 208.789 313.56 208.069 318.42ZM258.984 336H251.964V296.4H258.204L277.044 324.24V296.4H284.064V336H277.884L258.984 308.46V336ZM304.8 336.6C295.62 336.6 288.06 330.18 288 320.94C287.94 311.16 295.32 304.98 304.8 304.98C314.4 304.98 321.78 311.16 321.72 320.94C321.66 330.06 314.58 336.6 304.8 336.6ZM304.74 330.78C310.14 330.78 314.64 326.76 314.64 320.88C314.64 314.94 310.32 310.8 304.74 310.8C299.4 310.8 295.02 314.76 295.02 320.88C295.02 326.52 299.4 330.78 304.74 330.78ZM344.641 329.1L345.841 335.16C338.161 338.4 327.721 335.16 327.721 324.42V311.4H322.921V305.28C328.381 305.22 327.721 302.04 327.721 296.4H334.741L334.801 305.28H343.561V311.4H334.741V323.64C334.741 329.16 339.721 331.2 344.641 329.1ZM371.777 336H364.757V296.4H392.177V303.42H371.777V313.02H388.397V319.14H371.777V336ZM408.979 336.6C399.799 336.6 392.239 330.18 392.179 320.94C392.119 311.16 399.499 304.98 408.979 304.98C418.579 304.98 425.959 311.16 425.899 320.94C425.839 330.06 418.759 336.6 408.979 336.6ZM408.919 330.78C414.319 330.78 418.819 326.76 418.819 320.88C418.819 314.94 414.499 310.8 408.919 310.8C403.579 310.8 399.199 314.76 399.199 320.88C399.199 326.52 403.579 330.78 408.919 330.78ZM443.236 336.6C435.196 336.66 429.796 331.14 429.796 321.66V305.58H436.816V321.66C436.816 327.3 439.996 330.84 445.276 330.78C450.736 330.72 453.976 326.4 453.976 320.46V305.58H461.296V336H454.216V328.26C452.896 333.9 447.856 336.6 443.236 336.6ZM472.507 336H465.187V305.58H472.207V312.96C473.947 307.92 479.167 304.98 484.507 304.98C492.907 304.92 499.327 310.86 499.327 320.94V336H492.307V320.88C492.367 314.28 487.807 310.74 482.407 310.8C477.127 310.86 472.507 314.52 472.507 320.88V336ZM518.453 336.6C509.693 336.66 503.273 329.7 503.273 320.94C503.273 310.86 509.693 304.92 518.093 304.98C523.433 304.98 528.653 307.92 530.393 312.96V296.4H537.413V336H530.393V328.5C528.773 333.3 523.673 336.6 518.453 336.6ZM520.193 330.72C525.413 330.66 530.093 326.64 530.093 320.88C530.093 314.52 525.473 310.86 520.193 310.8C514.793 310.74 510.293 314.28 510.293 320.88C510.293 326.76 514.913 330.78 520.193 330.72Z" fill="white"/>
<path d="M9.59363 393H7.90163L7.93763 382.614L4.13963 382.596V381.12H13.4456V382.596L9.62963 382.614L9.59363 393ZM16.5384 393H14.7744V381.12H16.4664V386.142C17.0604 384.648 18.6264 383.694 20.3364 383.694C22.8924 383.676 24.8544 385.476 24.8544 388.482V393H23.1444L23.1624 388.482C23.1624 386.25 21.6144 385.098 19.8504 385.116C18.1224 385.116 16.5384 386.34 16.5384 388.482V393ZM30.9886 393.18C28.4506 393.18 26.1826 391.254 26.1826 388.464C26.1826 385.404 28.4506 383.694 30.9886 383.694C33.4366 383.694 35.4886 385.278 35.7226 388.158C35.7406 388.374 35.7406 388.626 35.7226 388.86H27.7846C27.9466 390.588 29.4946 391.758 30.9706 391.776C32.1226 391.776 33.2566 391.236 33.8506 390.21L35.1466 390.876C34.3186 392.334 32.7526 393.18 30.9886 393.18ZM27.9106 387.852H34.1206C33.9226 386.124 32.4646 385.08 30.9886 385.08C29.5306 385.08 28.0906 386.124 27.9106 387.852ZM43.273 396.258H41.581V384.072H43.273V386.304C43.813 384.846 45.361 383.82 46.999 383.802C49.591 383.784 51.553 385.836 51.553 388.446C51.553 391.416 49.609 393.198 47.071 393.18C45.397 393.18 43.849 392.244 43.273 390.768V396.258ZM46.603 391.758C48.349 391.776 49.861 390.642 49.861 388.446C49.861 386.538 48.331 385.224 46.603 385.242C44.893 385.242 43.345 386.574 43.345 388.446C43.345 390.552 44.893 391.74 46.603 391.758ZM57.4742 393.18C54.8462 393.198 52.8662 391.128 52.8662 388.482C52.8662 385.476 54.8282 383.676 57.3842 383.694C59.0762 383.694 60.6602 384.648 61.2362 386.142V383.874H62.9462V393H61.2542V390.678C60.6962 392.154 59.1302 393.18 57.4742 393.18ZM57.8522 391.74C59.5982 391.74 61.1822 390.39 61.1822 388.482C61.1822 386.376 59.5982 385.116 57.8522 385.116C56.0882 385.098 54.5582 386.25 54.5582 388.482C54.5582 390.408 56.1242 391.758 57.8522 391.74ZM68.8121 397.374C65.9321 397.374 64.2401 396.33 64.2041 394.512C64.1501 393.234 65.1041 392.316 66.0581 391.902C65.6261 391.668 65.4101 391.398 65.4281 390.876C65.4461 390.372 65.7881 389.904 66.3461 389.544C65.4281 389.022 64.9241 388.086 64.9241 387.06C64.9241 384.99 66.3821 383.694 68.8481 383.694C69.6221 383.694 70.1621 383.802 70.5221 383.856H73.4021V385.152H71.8721C72.3941 385.512 72.6821 386.304 72.6821 386.97C72.6821 388.986 71.2061 390.246 68.7941 390.246C68.3441 390.246 67.8401 390.192 67.6061 390.156C67.0481 390.426 66.7601 390.786 66.7601 391.11C66.7781 391.65 67.3721 391.722 68.0201 391.722H69.8561C72.0161 391.722 73.6541 392.532 73.6181 394.44C73.5821 396.438 71.8541 397.374 68.8121 397.374ZM68.8121 388.86C70.3241 388.86 71.1341 388.176 71.1341 386.97C71.1341 385.818 70.3241 385.098 68.8121 385.098C67.2461 385.098 66.4721 385.8 66.4721 387.024C66.4721 388.158 67.2281 388.86 68.8121 388.86ZM68.7221 396.096C70.9181 396.096 72.0341 395.556 72.0521 394.512C72.0881 393.396 71.2781 392.838 69.6041 392.838H68.0381C66.7961 392.838 65.7161 393.414 65.7701 394.548C65.8061 395.61 66.7961 396.096 68.7221 396.096ZM78.8363 393.18C76.2983 393.18 74.0303 391.254 74.0303 388.464C74.0303 385.404 76.2983 383.694 78.8363 383.694C81.2843 383.694 83.3363 385.278 83.5703 388.158C83.5883 388.374 83.5883 388.626 83.5703 388.86H75.6323C75.7943 390.588 77.3423 391.758 78.8183 391.776C79.9703 391.776 81.1043 391.236 81.6983 390.21L82.9943 390.876C82.1663 392.334 80.6003 393.18 78.8363 393.18ZM75.7583 387.852H81.9683C81.7703 386.124 80.3123 385.08 78.8363 385.08C77.3783 385.08 75.9383 386.124 75.7583 387.852ZM89.4287 394.314L90.4007 393.342C90.8687 393.99 92.1647 394.152 92.6867 393.054L93.2087 391.956L89.6807 383.874H91.3547L94.0727 390.588L97.0967 383.874H98.7887L94.0547 393.45C92.9567 395.682 90.7067 395.592 89.4287 394.314ZM103.643 393.18C100.925 393.18 98.6928 391.218 98.6748 388.482C98.6568 385.566 100.835 383.694 103.643 383.694C106.487 383.694 108.665 385.566 108.647 388.482C108.629 391.2 106.523 393.18 103.643 393.18ZM103.625 391.758C105.389 391.758 106.955 390.444 106.955 388.482C106.955 386.466 105.479 385.116 103.643 385.116C101.861 385.116 100.367 386.376 100.367 388.482C100.367 390.354 101.879 391.758 103.625 391.758ZM113.992 393.18C111.562 393.198 109.978 391.578 109.978 388.788V383.874H111.67V388.77C111.67 390.642 112.696 391.776 114.442 391.758C116.242 391.74 117.286 390.3 117.286 388.32V383.874H119.05V393H117.358V390.588C116.926 392.334 115.414 393.18 113.992 393.18ZM122.688 383.928L121.554 384.63C120.456 383.352 120.348 382.758 120.402 381.12H121.986C121.896 382.542 122.076 383.01 122.688 383.928ZM125.786 393H124.022V383.874H125.714V386.43C126.236 384.612 128.36 383.568 130.16 384.072L129.332 385.476C127.838 385.062 125.786 386.322 125.786 388.482V393ZM134.629 393.18C132.091 393.18 129.823 391.254 129.823 388.464C129.823 385.404 132.091 383.694 134.629 383.694C137.077 383.694 139.129 385.278 139.363 388.158C139.381 388.374 139.381 388.626 139.363 388.86H131.425C131.587 390.588 133.135 391.758 134.611 391.776C135.763 391.776 136.897 391.236 137.491 390.21L138.787 390.876C137.959 392.334 136.393 393.18 134.629 393.18ZM131.551 387.852H137.761C137.563 386.124 136.105 385.08 134.629 385.08C133.171 385.08 131.731 386.124 131.551 387.852ZM146.914 393H145.222V381.12H146.914V393ZM153.213 393.18C150.495 393.18 148.263 391.218 148.245 388.482C148.227 385.566 150.405 383.694 153.213 383.694C156.057 383.694 158.235 385.566 158.217 388.482C158.199 391.2 156.093 393.18 153.213 393.18ZM153.195 391.758C154.959 391.758 156.525 390.444 156.525 388.482C156.525 386.466 155.049 385.116 153.213 385.116C151.431 385.116 149.937 386.376 149.937 388.482C149.937 390.354 151.449 391.758 153.195 391.758ZM164.516 393.18C161.798 393.18 159.566 391.218 159.548 388.482C159.53 385.566 161.708 383.694 164.516 383.694C167.36 383.694 169.538 385.566 169.52 388.482C169.502 391.2 167.396 393.18 164.516 393.18ZM164.498 391.758C166.262 391.758 167.828 390.444 167.828 388.482C167.828 386.466 166.352 385.116 164.516 385.116C162.734 385.116 161.24 386.376 161.24 388.482C161.24 390.354 162.752 391.758 164.498 391.758ZM172.543 393H170.851V381.12H172.561V387.816L176.575 384.072H178.429L174.721 387.708L179.095 393H177.259L173.551 388.626L172.543 389.562V393ZM181.439 382.632C180.899 382.632 180.431 382.308 180.431 381.84C180.431 381.354 180.899 381.048 181.439 381.048C181.943 381.048 182.429 381.354 182.429 381.84C182.429 382.308 181.943 382.632 181.439 382.632ZM182.267 393H180.575V383.874H182.267V393ZM185.499 393H183.735V383.874H185.427V386.142C186.021 384.648 187.587 383.694 189.297 383.694C191.853 383.676 193.815 385.476 193.815 388.482V393H192.105L192.123 388.482C192.141 386.25 190.575 385.098 188.811 385.116C187.083 385.116 185.499 386.34 185.499 388.482V393ZM199.277 397.374C196.397 397.374 194.705 396.33 194.669 394.512C194.615 393.234 195.569 392.316 196.523 391.902C196.091 391.668 195.875 391.398 195.893 390.876C195.911 390.372 196.253 389.904 196.811 389.544C195.893 389.022 195.389 388.086 195.389 387.06C195.389 384.99 196.847 383.694 199.313 383.694C200.087 383.694 200.627 383.802 200.987 383.856H203.867V385.152H202.337C202.859 385.512 203.147 386.304 203.147 386.97C203.147 388.986 201.671 390.246 199.259 390.246C198.809 390.246 198.305 390.192 198.071 390.156C197.513 390.426 197.225 390.786 197.225 391.11C197.243 391.65 197.837 391.722 198.485 391.722H200.321C202.481 391.722 204.119 392.532 204.083 394.44C204.047 396.438 202.319 397.374 199.277 397.374ZM199.277 388.86C200.789 388.86 201.599 388.176 201.599 386.97C201.599 385.818 200.789 385.098 199.277 385.098C197.711 385.098 196.937 385.8 196.937 387.024C196.937 388.158 197.693 388.86 199.277 388.86ZM199.187 396.096C201.383 396.096 202.499 395.556 202.517 394.512C202.553 393.396 201.743 392.838 200.069 392.838H198.503C197.261 392.838 196.181 393.414 196.235 394.548C196.271 395.61 197.261 396.096 199.187 396.096ZM213.22 393H211.546V386.97H209.962V385.548H211.546V384.414C211.546 381.282 214.66 380.364 216.82 381.3L216.496 382.758C215.002 382.092 213.22 382.632 213.22 384.45V385.548H216.064V386.97H213.238L213.22 393ZM221.944 393.18C219.226 393.18 216.994 391.218 216.976 388.482C216.958 385.566 219.136 383.694 221.944 383.694C224.788 383.694 226.966 385.566 226.948 388.482C226.93 391.2 224.824 393.18 221.944 393.18ZM221.926 391.758C223.69 391.758 225.256 390.444 225.256 388.482C225.256 386.466 223.78 385.116 221.944 385.116C220.162 385.116 218.668 386.376 218.668 388.482C218.668 390.354 220.18 391.758 221.926 391.758ZM230.042 393H228.278V383.874H229.97V386.43C230.492 384.612 232.616 383.568 234.416 384.072L233.588 385.476C232.094 385.062 230.042 386.322 230.042 388.482V393ZM245.217 393.18C242.499 393.18 240.267 391.236 240.249 388.482C240.231 385.53 242.409 383.694 245.217 383.694C247.305 383.694 249.087 384.774 249.789 386.376L248.223 386.97C247.665 385.818 246.495 385.116 245.217 385.116C243.435 385.116 241.941 386.448 241.941 388.482C241.941 390.372 243.453 391.758 245.199 391.758C246.531 391.758 247.719 390.984 248.241 389.832L249.807 390.462C249.051 392.064 247.323 393.18 245.217 393.18ZM255.755 393.18C253.127 393.198 251.147 391.128 251.147 388.482C251.147 385.476 253.109 383.676 255.665 383.694C257.357 383.694 258.941 384.648 259.517 386.142V383.874H261.227V393H259.535V390.678C258.977 392.154 257.411 393.18 255.755 393.18ZM256.133 391.74C257.879 391.74 259.463 390.39 259.463 388.482C259.463 386.376 257.879 385.116 256.133 385.116C254.369 385.098 252.839 386.25 252.839 388.482C252.839 390.408 254.405 391.758 256.133 391.74ZM264.32 393H262.556V383.874H264.248V386.142C264.842 384.648 266.408 383.694 268.118 383.694C270.674 383.676 272.636 385.476 272.636 388.482V393H270.926L270.944 388.482C270.962 386.25 269.396 385.098 267.632 385.116C265.904 385.116 264.32 386.34 264.32 388.482V393ZM276.268 383.928L275.134 384.63C274.036 383.352 273.928 382.758 273.982 381.12H275.566C275.476 382.542 275.656 383.01 276.268 383.928ZM284.011 391.272L284.335 392.73C282.175 393.666 279.097 392.748 279.097 389.616V385.296H277.603V383.802C279.313 383.802 279.097 382.776 279.097 381.12H280.789L280.807 383.802H283.651V385.296H280.789V389.436C280.789 391.272 282.499 391.938 284.011 391.272ZM295.643 393.18C293.987 393.18 292.403 392.154 291.863 390.678V393H290.171V381.12H291.863V386.142C292.457 384.648 294.023 383.694 295.733 383.694C298.289 383.676 300.251 385.476 300.251 388.482C300.251 391.128 298.271 393.198 295.643 393.18ZM295.265 391.74C296.993 391.758 298.559 390.408 298.559 388.482C298.559 386.25 297.011 385.098 295.247 385.116C293.519 385.116 291.935 386.34 291.935 388.482C291.935 390.39 293.519 391.74 295.265 391.74ZM306.385 393.18C303.847 393.18 301.579 391.254 301.579 388.464C301.579 385.404 303.847 383.694 306.385 383.694C308.833 383.694 310.885 385.278 311.119 388.158C311.137 388.374 311.137 388.626 311.119 388.86H303.181C303.343 390.588 304.891 391.758 306.367 391.776C307.519 391.776 308.653 391.236 309.247 390.21L310.543 390.876C309.715 392.334 308.149 393.18 306.385 393.18ZM303.307 387.852H309.517C309.319 386.124 307.861 385.08 306.385 385.08C304.927 385.08 303.487 386.124 303.307 387.852ZM320.236 393H318.562V386.97H316.978V385.548H318.562V384.414C318.562 381.282 321.676 380.364 323.836 381.3L323.512 382.758C322.018 382.092 320.236 382.632 320.236 384.45V385.548H323.08V386.97H320.254L320.236 393ZM328.959 393.18C326.241 393.18 324.009 391.218 323.991 388.482C323.973 385.566 326.151 383.694 328.959 383.694C331.803 383.694 333.981 385.566 333.963 388.482C333.945 391.2 331.839 393.18 328.959 393.18ZM328.941 391.758C330.705 391.758 332.271 390.444 332.271 388.482C332.271 386.466 330.795 385.116 328.959 385.116C327.177 385.116 325.683 386.376 325.683 388.482C325.683 390.354 327.195 391.758 328.941 391.758ZM339.308 393.18C336.878 393.198 335.294 391.578 335.294 388.788V383.874H336.986V388.77C336.986 390.642 338.012 391.776 339.758 391.758C341.558 391.74 342.602 390.3 342.602 388.32V383.874H344.366V393H342.674V390.588C342.242 392.334 340.73 393.18 339.308 393.18ZM347.464 393H345.7V383.874H347.392V386.142C347.986 384.648 349.552 383.694 351.262 383.694C353.818 383.676 355.78 385.476 355.78 388.482V393H354.07L354.088 388.482C354.106 386.25 352.54 385.098 350.776 385.116C349.048 385.116 347.464 386.34 347.464 388.482V393ZM361.716 393.18C359.088 393.198 357.108 391.128 357.108 388.482C357.108 385.476 359.07 383.676 361.626 383.694C363.318 383.694 364.902 384.648 365.478 386.142V381.12H367.188V393H365.496V390.678C364.938 392.154 363.372 393.18 361.716 393.18ZM362.094 391.74C363.84 391.74 365.424 390.39 365.424 388.482C365.424 386.34 363.84 385.116 362.094 385.116C360.33 385.098 358.8 386.25 358.8 388.482C358.8 390.408 360.366 391.758 362.094 391.74ZM369.543 392.964C368.985 392.964 368.517 392.514 368.517 391.938C368.517 391.398 368.985 390.948 369.543 390.948C370.083 390.948 370.551 391.398 370.551 391.938C370.551 392.514 370.083 392.964 369.543 392.964ZM380.478 393H376.374L376.392 381.12H380.568C383.718 381.12 386.814 382.956 386.814 386.934C386.814 390.642 383.952 393 380.478 393ZM378.084 382.596V391.506H380.478C383.304 391.506 385.104 389.526 385.104 387.006C385.122 384.396 383.376 382.596 380.586 382.596H378.084ZM393.119 393.18C390.401 393.18 388.169 391.218 388.151 388.482C388.133 385.566 390.311 383.694 393.119 383.694C395.963 383.694 398.141 385.566 398.123 388.482C398.105 391.2 395.999 393.18 393.119 393.18ZM393.101 391.758C394.865 391.758 396.431 390.444 396.431 388.482C396.431 386.466 394.955 385.116 393.119 385.116C391.337 385.116 389.843 386.376 389.843 388.482C389.843 390.354 391.355 391.758 393.101 391.758ZM403.468 393.18C401.038 393.198 399.454 391.578 399.454 388.788V383.874H401.146V388.77C401.146 390.642 402.172 391.776 403.918 391.758C405.718 391.74 406.762 390.3 406.762 388.32V383.874H408.526V393H406.834V390.588C406.402 392.334 404.89 393.18 403.468 393.18ZM415.332 393.18C413.676 393.18 412.092 392.154 411.552 390.678V393H409.86V381.12H411.552V386.142C412.146 384.648 413.712 383.694 415.422 383.694C417.978 383.676 419.94 385.476 419.94 388.482C419.94 391.128 417.96 393.198 415.332 393.18ZM414.954 391.74C416.682 391.758 418.248 390.408 418.248 388.482C418.248 386.25 416.7 385.098 414.936 385.116C413.208 385.116 411.624 386.34 411.624 388.482C411.624 390.39 413.208 391.74 414.954 391.74ZM422.961 393H421.269V381.12H422.961V393ZM429.098 393.18C426.56 393.18 424.292 391.254 424.292 388.464C424.292 385.404 426.56 383.694 429.098 383.694C431.546 383.694 433.598 385.278 433.832 388.158C433.85 388.374 433.85 388.626 433.832 388.86H425.894C426.056 390.588 427.604 391.758 429.08 391.776C430.232 391.776 431.366 391.236 431.96 390.21L433.256 390.876C432.428 392.334 430.862 393.18 429.098 393.18ZM426.02 387.852H432.23C432.032 386.124 430.574 385.08 429.098 385.08C427.64 385.08 426.2 386.124 426.02 387.852ZM440.77 389.148H435.19V387.582H440.77V389.148ZM447.049 393.18C444.331 393.18 442.099 391.236 442.081 388.482C442.063 385.53 444.241 383.694 447.049 383.694C449.137 383.694 450.919 384.774 451.621 386.376L450.055 386.97C449.497 385.818 448.327 385.116 447.049 385.116C445.267 385.116 443.773 386.448 443.773 388.482C443.773 390.372 445.285 391.758 447.031 391.758C448.363 391.758 449.551 390.984 450.073 389.832L451.639 390.462C450.883 392.064 449.155 393.18 447.049 393.18ZM454.743 393H452.979V381.12H454.671V386.142C455.265 384.648 456.831 383.694 458.541 383.694C461.097 383.676 463.059 385.476 463.059 388.482V393H461.349L461.367 388.482C461.367 386.25 459.819 385.098 458.055 385.116C456.327 385.116 454.743 386.34 454.743 388.482V393ZM469.194 393.18C466.656 393.18 464.388 391.254 464.388 388.464C464.388 385.404 466.656 383.694 469.194 383.694C471.642 383.694 473.694 385.278 473.928 388.158C473.946 388.374 473.946 388.626 473.928 388.86H465.99C466.152 390.588 467.7 391.758 469.176 391.776C470.328 391.776 471.462 391.236 472.056 390.21L473.352 390.876C472.524 392.334 470.958 393.18 469.194 393.18ZM466.116 387.852H472.326C472.128 386.124 470.67 385.08 469.194 385.08C467.736 385.08 466.296 386.124 466.116 387.852ZM480.254 393.18C477.536 393.18 475.304 391.236 475.286 388.482C475.268 385.53 477.446 383.694 480.254 383.694C482.342 383.694 484.124 384.774 484.826 386.376L483.26 386.97C482.702 385.818 481.532 385.116 480.254 385.116C478.472 385.116 476.978 386.448 476.978 388.482C476.978 390.372 478.49 391.758 480.236 391.758C481.568 391.758 482.756 390.984 483.278 389.832L484.844 390.462C484.088 392.064 482.36 393.18 480.254 393.18ZM487.877 393H486.185V381.12H487.895V387.816L491.909 384.072H493.763L490.055 387.708L494.429 393H492.593L488.885 388.626L487.877 389.562V393ZM506.673 391.272L506.997 392.73C504.837 393.666 501.759 392.748 501.759 389.616V385.296H500.265V383.802C501.975 383.802 501.759 382.776 501.759 381.12H503.451L503.469 383.802H506.313V385.296H503.451V389.436C503.451 391.272 505.161 391.938 506.673 391.272ZM510.097 393H508.333V381.12H510.025V386.142C510.619 384.648 512.185 383.694 513.895 383.694C516.451 383.676 518.413 385.476 518.413 388.482V393H516.703L516.721 388.482C516.721 386.25 515.173 385.098 513.409 385.116C511.681 385.116 510.097 386.34 510.097 388.482V393ZM524.547 393.18C522.009 393.18 519.741 391.254 519.741 388.464C519.741 385.404 522.009 383.694 524.547 383.694C526.995 383.694 529.047 385.278 529.281 388.158C529.299 388.374 529.299 388.626 529.281 388.86H521.343C521.505 390.588 523.053 391.758 524.529 391.776C525.681 391.776 526.815 391.236 527.409 390.21L528.705 390.876C527.877 392.334 526.311 393.18 524.547 393.18ZM521.469 387.852H527.679C527.481 386.124 526.023 385.08 524.547 385.08C523.089 385.08 521.649 386.124 521.469 387.852ZM539.91 393.18C536.994 393.18 535.14 391.326 535.14 388.518V381.12H536.832V388.392C536.832 390.3 537.894 391.686 539.928 391.686C541.926 391.686 542.97 390.3 542.97 388.392V381.12H544.662V388.518C544.662 391.29 542.808 393.18 539.91 393.18ZM547.677 393H545.985V381.12H550.467C553.905 381.12 554.697 383.118 554.697 384.756C554.697 386.376 553.959 387.96 551.655 388.176L550.863 388.194L553.941 393H552.033L549.009 388.194H547.677V393ZM547.677 382.596V386.754H550.467C552.123 386.754 553.005 386.142 553.005 384.756C553.005 383.622 552.375 382.596 550.449 382.596H547.677ZM563.906 393H556.022V381.12H557.714V391.506H563.906V393ZM574.324 393.18C571.696 393.198 569.716 391.128 569.716 388.482C569.716 385.476 571.678 383.676 574.234 383.694C575.926 383.694 577.51 384.648 578.086 386.142V383.874H579.796V393H578.104V390.678C577.546 392.154 575.98 393.18 574.324 393.18ZM574.702 391.74C576.448 391.74 578.032 390.39 578.032 388.482C578.032 386.376 576.448 385.116 574.702 385.116C572.938 385.098 571.408 386.25 571.408 388.482C571.408 390.408 572.974 391.758 574.702 391.74ZM582.888 393H581.124V383.874H582.816V386.142C583.41 384.648 584.976 383.694 586.686 383.694C589.242 383.676 591.204 385.476 591.204 388.482V393H589.494L589.512 388.482C589.53 386.25 587.964 385.098 586.2 385.116C584.472 385.116 582.888 386.34 582.888 388.482V393ZM597.14 393.18C594.512 393.198 592.532 391.128 592.532 388.482C592.532 385.476 594.494 383.676 597.05 383.694C598.742 383.694 600.326 384.648 600.902 386.142V381.12H602.612V393H600.92V390.678C600.362 392.154 598.796 393.18 597.14 393.18ZM597.518 391.74C599.264 391.74 600.848 390.39 600.848 388.482C600.848 386.34 599.264 385.116 597.518 385.116C595.754 385.098 594.224 386.25 594.224 388.482C594.224 390.408 595.79 391.758 597.518 391.74ZM614.848 391.272L615.172 392.73C613.012 393.666 609.934 392.748 609.934 389.616V385.296H608.44V383.802C610.15 383.802 609.934 382.776 609.934 381.12H611.626L611.644 383.802H614.488V385.296H611.626V389.436C611.626 391.272 613.336 391.938 614.848 391.272ZM618.273 393H616.509V383.874H618.201V386.43C618.723 384.612 620.847 383.568 622.647 384.072L621.819 385.476C620.325 385.062 618.273 386.322 618.273 388.482V393ZM623.505 394.314L624.477 393.342C624.945 393.99 626.241 394.152 626.763 393.054L627.285 391.956L623.757 383.874H625.431L628.149 390.588L631.173 383.874H632.865L628.131 393.45C627.033 395.682 624.783 395.592 623.505 394.314ZM185.865 425.18C183.237 425.198 181.257 423.128 181.257 420.482C181.257 417.476 183.219 415.676 185.775 415.694C187.467 415.694 189.051 416.648 189.627 418.142V415.874H191.337V425H189.645V422.678C189.087 424.154 187.521 425.18 185.865 425.18ZM186.243 423.74C187.989 423.74 189.573 422.39 189.573 420.482C189.573 418.376 187.989 417.116 186.243 417.116C184.479 417.098 182.949 418.25 182.949 420.482C182.949 422.408 184.515 423.758 186.243 423.74ZM197.203 429.374C194.323 429.374 192.631 428.33 192.595 426.512C192.541 425.234 193.495 424.316 194.449 423.902C194.017 423.668 193.801 423.398 193.819 422.876C193.837 422.372 194.179 421.904 194.737 421.544C193.819 421.022 193.315 420.086 193.315 419.06C193.315 416.99 194.773 415.694 197.239 415.694C198.013 415.694 198.553 415.802 198.913 415.856H201.793V417.152H200.263C200.785 417.512 201.073 418.304 201.073 418.97C201.073 420.986 199.597 422.246 197.185 422.246C196.735 422.246 196.231 422.192 195.997 422.156C195.439 422.426 195.151 422.786 195.151 423.11C195.169 423.65 195.763 423.722 196.411 423.722H198.247C200.407 423.722 202.045 424.532 202.009 426.44C201.973 428.438 200.245 429.374 197.203 429.374ZM197.203 420.86C198.715 420.86 199.525 420.176 199.525 418.97C199.525 417.818 198.715 417.098 197.203 417.098C195.637 417.098 194.863 417.8 194.863 419.024C194.863 420.158 195.619 420.86 197.203 420.86ZM197.113 428.096C199.309 428.096 200.425 427.556 200.443 426.512C200.479 425.396 199.669 424.838 197.995 424.838H196.429C195.187 424.838 194.107 425.414 194.161 426.548C194.197 427.61 195.187 428.096 197.113 428.096ZM207.099 425.18C204.471 425.198 202.491 423.128 202.491 420.482C202.491 417.476 204.453 415.676 207.009 415.694C208.701 415.694 210.285 416.648 210.861 418.142V415.874H212.571V425H210.879V422.678C210.321 424.154 208.755 425.18 207.099 425.18ZM207.477 423.74C209.223 423.74 210.807 422.39 210.807 420.482C210.807 418.376 209.223 417.116 207.477 417.116C205.713 417.098 204.183 418.25 204.183 420.482C204.183 422.408 205.749 423.758 207.477 423.74ZM214.907 414.632C214.367 414.632 213.899 414.308 213.899 413.84C213.899 413.354 214.367 413.048 214.907 413.048C215.411 413.048 215.897 413.354 215.897 413.84C215.897 414.308 215.411 414.632 214.907 414.632ZM215.735 425H214.043V415.874H215.735V425ZM218.968 425H217.204V415.874H218.896V418.142C219.49 416.648 221.056 415.694 222.766 415.694C225.322 415.676 227.284 417.476 227.284 420.482V425H225.574L225.592 420.482C225.61 418.25 224.044 417.098 222.28 417.116C220.552 417.116 218.968 418.34 218.968 420.482V425ZM229.638 424.964C229.08 424.964 228.612 424.514 228.612 423.938C228.612 423.398 229.08 422.948 229.638 422.948C230.178 422.948 230.646 423.398 230.646 423.938C230.646 424.514 230.178 424.964 229.638 424.964ZM242.626 425.18C239.26 425.18 236.452 422.66 236.47 419.114C236.488 415.514 239.242 412.94 242.644 412.94C246.118 412.94 248.746 415.55 248.728 419.114C248.728 422.606 246.046 425.18 242.626 425.18ZM242.626 423.686C245.038 423.686 247 421.742 247.018 419.114C247.036 416.306 245.038 414.434 242.662 414.434C240.286 414.434 238.18 416.324 238.18 419.114C238.198 421.724 240.232 423.686 242.626 423.686ZM251.822 425H250.058V415.874H251.75V418.43C252.272 416.612 254.396 415.568 256.196 416.072L255.368 417.476C253.874 417.062 251.822 418.322 251.822 420.482V425ZM266.996 425.18C264.278 425.18 262.046 423.236 262.028 420.482C262.01 417.53 264.188 415.694 266.996 415.694C269.084 415.694 270.866 416.774 271.568 418.376L270.002 418.97C269.444 417.818 268.274 417.116 266.996 417.116C265.214 417.116 263.72 418.448 263.72 420.482C263.72 422.372 265.232 423.758 266.978 423.758C268.31 423.758 269.498 422.984 270.02 421.832L271.586 422.462C270.83 424.064 269.102 425.18 266.996 425.18ZM274.619 425H272.927V413.12H274.619V425ZM276.958 414.632C276.418 414.632 275.95 414.308 275.95 413.84C275.95 413.354 276.418 413.048 276.958 413.048C277.462 413.048 277.948 413.354 277.948 413.84C277.948 414.308 277.462 414.632 276.958 414.632ZM277.786 425H276.094V415.874H277.786V425ZM284.223 425.18C281.505 425.18 279.273 423.236 279.255 420.482C279.237 417.53 281.415 415.694 284.223 415.694C286.311 415.694 288.093 416.774 288.795 418.376L287.229 418.97C286.671 417.818 285.501 417.116 284.223 417.116C282.441 417.116 280.947 418.448 280.947 420.482C280.947 422.372 282.459 423.758 284.205 423.758C285.537 423.758 286.725 422.984 287.247 421.832L288.813 422.462C288.057 424.064 286.329 425.18 284.223 425.18ZM291.845 425H290.153V413.12H291.863V419.816L295.877 416.072H297.731L294.023 419.708L298.397 425H296.561L292.853 420.626L291.845 421.562V425ZM310.641 423.272L310.965 424.73C308.805 425.666 305.727 424.748 305.727 421.616V417.296H304.233V415.802C305.943 415.802 305.727 414.776 305.727 413.12H307.419L307.437 415.802H310.281V417.296H307.419V421.436C307.419 423.272 309.129 423.938 310.641 423.272ZM314.066 425H312.302V413.12H313.994V418.142C314.588 416.648 316.154 415.694 317.864 415.694C320.42 415.676 322.382 417.476 322.382 420.482V425H320.672L320.69 420.482C320.69 418.25 319.142 417.098 317.378 417.116C315.65 417.116 314.066 418.34 314.066 420.482V425ZM328.516 425.18C325.978 425.18 323.71 423.254 323.71 420.464C323.71 417.404 325.978 415.694 328.516 415.694C330.964 415.694 333.016 417.278 333.25 420.158C333.268 420.374 333.268 420.626 333.25 420.86H325.312C325.474 422.588 327.022 423.758 328.498 423.776C329.65 423.776 330.784 423.236 331.378 422.21L332.674 422.876C331.846 424.334 330.28 425.18 328.516 425.18ZM325.438 419.852H331.648C331.45 418.124 329.992 417.08 328.516 417.08C327.058 417.08 325.618 418.124 325.438 419.852ZM344.58 425.18C342.924 425.18 341.34 424.154 340.8 422.678V425H339.108V413.12H340.8V418.142C341.394 416.648 342.96 415.694 344.67 415.694C347.226 415.676 349.188 417.476 349.188 420.482C349.188 423.128 347.208 425.198 344.58 425.18ZM344.202 423.74C345.93 423.758 347.496 422.408 347.496 420.482C347.496 418.25 345.948 417.098 344.184 417.116C342.456 417.116 340.872 418.34 340.872 420.482C340.872 422.39 342.456 423.74 344.202 423.74ZM354.531 425.18C352.101 425.198 350.517 423.578 350.517 420.788V415.874H352.209V420.77C352.209 422.642 353.235 423.776 354.981 423.758C356.781 423.74 357.825 422.3 357.825 420.32V415.874H359.589V425H357.897V422.588C357.465 424.334 355.953 425.18 354.531 425.18ZM367.331 423.272L367.655 424.73C365.495 425.666 362.417 424.748 362.417 421.616V417.296H360.923V415.802C362.633 415.802 362.417 414.776 362.417 413.12H364.109L364.127 415.802H366.971V417.296H364.109V421.436C364.109 423.272 365.819 423.938 367.331 423.272ZM374.854 423.272L375.178 424.73C373.018 425.666 369.94 424.748 369.94 421.616V417.296H368.446V415.802C370.156 415.802 369.94 414.776 369.94 413.12H371.632L371.65 415.802H374.494V417.296H371.632V421.436C371.632 423.272 373.342 423.938 374.854 423.272ZM380.569 425.18C377.851 425.18 375.619 423.218 375.601 420.482C375.583 417.566 377.761 415.694 380.569 415.694C383.413 415.694 385.591 417.566 385.573 420.482C385.555 423.2 383.449 425.18 380.569 425.18ZM380.551 423.758C382.315 423.758 383.881 422.444 383.881 420.482C383.881 418.466 382.405 417.116 380.569 417.116C378.787 417.116 377.293 418.376 377.293 420.482C377.293 422.354 378.805 423.758 380.551 423.758ZM388.667 425H386.903V415.874H388.595V418.142C389.189 416.648 390.755 415.694 392.465 415.694C395.021 415.676 396.983 417.476 396.983 420.482V425H395.273L395.291 420.482C395.309 418.25 393.743 417.098 391.979 417.116C390.251 417.116 388.667 418.34 388.667 420.482V425ZM408.284 425.18C406.628 425.18 405.044 424.154 404.504 422.678V425H402.812V413.12H404.504V418.142C405.098 416.648 406.664 415.694 408.374 415.694C410.93 415.676 412.892 417.476 412.892 420.482C412.892 423.128 410.912 425.198 408.284 425.18ZM407.906 423.74C409.634 423.758 411.2 422.408 411.2 420.482C411.2 418.25 409.652 417.098 407.888 417.116C406.16 417.116 404.576 418.34 404.576 420.482C404.576 422.39 406.16 423.74 407.906 423.74ZM419.026 425.18C416.488 425.18 414.22 423.254 414.22 420.464C414.22 417.404 416.488 415.694 419.026 415.694C421.474 415.694 423.526 417.278 423.76 420.158C423.778 420.374 423.778 420.626 423.76 420.86H415.822C415.984 422.588 417.532 423.758 419.008 423.776C420.16 423.776 421.294 423.236 421.888 422.21L423.184 422.876C422.356 424.334 420.79 425.18 419.026 425.18ZM415.948 419.852H422.158C421.96 418.124 420.502 417.08 419.026 417.08C417.568 417.08 416.128 418.124 415.948 419.852ZM426.81 425H425.118V413.12H426.81V425ZM433.11 425.18C430.392 425.18 428.16 423.218 428.142 420.482C428.124 417.566 430.302 415.694 433.11 415.694C435.954 415.694 438.132 417.566 438.114 420.482C438.096 423.2 435.99 425.18 433.11 425.18ZM433.092 423.758C434.856 423.758 436.422 422.444 436.422 420.482C436.422 418.466 434.946 417.116 433.11 417.116C431.328 417.116 429.834 418.376 429.834 420.482C429.834 422.354 431.346 423.758 433.092 423.758ZM442.678 425H441.076L438.196 415.874H439.888L442.102 422.858L444.406 415.874H445.936L448.294 422.858L450.688 415.874H452.38L449.338 425H447.7L445.18 418.16L442.678 425ZM454.744 424.964C454.186 424.964 453.718 424.514 453.718 423.938C453.718 423.398 454.186 422.948 454.744 422.948C455.284 422.948 455.752 423.398 455.752 423.938C455.752 424.514 455.284 424.964 454.744 424.964Z" fill="white"/>
<defs>
<clipPath id="clip0_315_1472">
<rect width="89" height="108" fill="white" transform="translate(211)"/>
</clipPath>
<clipPath id="clip1_315_1472">
<rect width="137" height="142" fill="white" transform="translate(250 99)"/>
</clipPath>
</defs>
</svg>
