<svg width="327" height="291" viewBox="0 0 327 291" fill="none" xmlns="http://www.w3.org/2000/svg">
<path opacity="0.35" d="M93.0664 74.5C114.538 74.5002 133.32 89.0321 138.799 109.889L138.896 110.262H138.943L186.352 290.5H139.085L97.0693 125.904C96.0998 122.086 92.3022 120.271 88.6787 120.271H35.6758L36.5244 121.124L46.0215 130.666V290.5H0.5V74.5H93.0664Z" stroke="#F6F6F6"/>
<path opacity="0.35" d="M258.5 0.5V95.3623C258.5 124.165 235.173 147.5 206.418 147.5H66.5V0.5H258.5ZM90.8838 32.0703L97.4258 38.6348V116.686H207.575V116.685C219.033 116.676 228.313 107.38 228.313 95.9092V31.2178H90.0342L90.8838 32.0703Z" stroke="#F6F6F6"/>
<path opacity="0.35" d="M171.505 53.5L171.986 103.498H287.951L287.1 104.352C285.328 106.126 283.551 107.901 281.773 109.675C280.045 111.4 278.317 113.125 276.595 114.85V155.496H208.729V205.494H276.595V290.5H326.5V53.5H171.505Z" stroke="#F6F6F6"/>
</svg>
