<svg width="1512" height="392" viewBox="0 0 1512 392" fill="none" xmlns="http://www.w3.org/2000/svg">
<g clip-path="url(#clip0_108_835)">
<path d="M99.0537 482.516C63.751 482.516 38.2627 473.727 22.5889 456.148C7.06152 438.57 -0.702148 410.592 -0.702148 372.213V334.42H75.7627V382.76C75.7627 391.695 77.0811 398.727 79.7178 403.854C82.501 408.834 87.2617 411.324 94 411.324C101.031 411.324 105.865 409.273 108.502 405.172C111.285 401.07 112.677 394.332 112.677 384.957C112.677 373.092 111.505 363.204 109.161 355.294C106.817 347.237 102.716 339.62 96.8564 332.442C91.1436 325.118 83.1602 316.622 72.9062 306.954L38.1895 273.995C12.2617 249.532 -0.702148 221.554 -0.702148 190.06C-0.702148 157.101 6.91504 131.979 22.1494 114.693C37.5303 97.4082 59.7227 88.7656 88.7266 88.7656C124.176 88.7656 149.298 98.2139 164.093 117.11C179.034 136.007 186.505 164.718 186.505 203.243H107.843V176.656C107.843 171.383 106.305 167.281 103.229 164.352C100.299 161.422 96.2705 159.957 91.1436 159.957C84.9912 159.957 80.4502 161.715 77.5205 165.23C74.7373 168.6 73.3457 172.994 73.3457 178.414C73.3457 183.834 74.8105 189.693 77.7402 195.992C80.6699 202.291 86.4561 209.542 95.0986 217.745L139.703 260.592C148.639 269.088 156.842 278.097 164.312 287.618C171.783 296.993 177.789 307.979 182.33 320.577C186.871 333.028 189.142 348.263 189.142 366.28C189.142 402.608 182.403 431.1 168.927 451.754C155.597 472.262 132.306 482.516 99.0537 482.516Z" fill="#F6F6F6"/>
<path d="M99.0537 79.5156C63.751 79.5156 38.2627 70.7266 22.5889 53.1484C7.06152 35.5703 -0.702148 7.5918 -0.702148 -30.7871V-68.5801H75.7627V-20.2402C75.7627 -11.3047 77.0811 -4.27344 79.7178 0.853516C82.501 5.83398 87.2617 8.32422 94 8.32422C101.031 8.32422 105.865 6.27344 108.502 2.17188C111.285 -1.92969 112.677 -8.66797 112.677 -18.043C112.677 -29.9082 111.505 -39.7959 109.161 -47.7061C106.817 -55.7627 102.716 -63.3799 96.8564 -70.5576C91.1436 -77.8818 83.1602 -86.3779 72.9062 -96.0459L38.1895 -129.005C12.2617 -153.468 -0.702148 -181.446 -0.702148 -212.94C-0.702148 -245.899 6.91504 -271.021 22.1494 -288.307C37.5303 -305.592 59.7227 -314.234 88.7266 -314.234C124.176 -314.234 149.298 -304.786 164.093 -285.89C179.034 -266.993 186.505 -238.282 186.505 -199.757H107.843V-226.344C107.843 -231.617 106.305 -235.719 103.229 -238.648C100.299 -241.578 96.2705 -243.043 91.1436 -243.043C84.9912 -243.043 80.4502 -241.285 77.5205 -237.77C74.7373 -234.4 73.3457 -230.006 73.3457 -224.586C73.3457 -219.166 74.8105 -213.307 77.7402 -207.008C80.6699 -200.709 86.4561 -193.458 95.0986 -185.255L139.703 -142.408C148.639 -133.912 156.842 -124.903 164.312 -115.382C171.783 -106.007 177.789 -95.0205 182.33 -82.4229C186.871 -69.9717 189.142 -54.7373 189.142 -36.7197C189.142 -0.391602 182.403 28.0996 168.927 48.7539C155.597 69.2617 132.306 79.5156 99.0537 79.5156Z" fill="#F6F6F6"/>
<path d="M215.414 325V-61.7188H370.102V12.9883H294.076V88.3545H367.025V161.084H294.076V249.634H375.155V325H215.414Z" fill="#F6F6F6"/>
<path d="M215.414 729V342.281H370.102V416.988H294.076V492.354H367.025V565.084H294.076V653.634H375.155V729H215.414Z" fill="#F6F6F6"/>
<path d="M401.412 480V93.2812H520.064C539.84 93.2812 554.781 97.8223 564.889 106.904C574.996 115.84 581.734 128.438 585.104 144.697C588.619 160.811 590.377 179.78 590.377 201.606C590.377 222.7 587.667 239.546 582.247 252.144C576.974 264.741 566.939 273.457 552.145 278.291C564.303 280.781 572.799 286.86 577.633 296.528C582.613 306.05 585.104 318.428 585.104 333.662V480H508.858V328.608C508.858 317.329 506.515 310.371 501.827 307.734C497.286 304.951 489.889 303.56 479.635 303.56V480H401.412ZM480.074 236.543H498.751C509.444 236.543 514.791 224.897 514.791 201.606C514.791 186.519 513.619 176.631 511.275 171.943C508.932 167.256 504.537 164.912 498.092 164.912H480.074V236.543Z" fill="#F6F6F6"/>
<path d="M401.412 77V-309.719H520.064C539.84 -309.719 554.781 -305.178 564.889 -296.096C574.996 -287.16 581.734 -274.562 585.104 -258.303C588.619 -242.189 590.377 -223.22 590.377 -201.394C590.377 -180.3 587.667 -163.454 582.247 -150.856C576.974 -138.259 566.939 -129.543 552.145 -124.709C564.303 -122.219 572.799 -116.14 577.633 -106.472C582.613 -96.9502 585.104 -84.5723 585.104 -69.3379V77H508.858V-74.3916C508.858 -85.6709 506.515 -92.6289 501.827 -95.2656C497.286 -98.0488 489.889 -99.4404 479.635 -99.4404V77H401.412ZM480.074 -166.457H498.751C509.444 -166.457 514.791 -178.103 514.791 -201.394C514.791 -216.481 513.619 -226.369 511.275 -231.057C508.932 -235.744 504.537 -238.088 498.092 -238.088H480.074V-166.457Z" fill="#F6F6F6"/>
<path d="M652.046 387L604.365 0.0615234H677.974L706.318 263.294L731.587 0.0615234H805.195L757.515 387H652.046Z" fill="#F6F6F6"/>
<path d="M824.646 325V-61.7188H899.354V325H824.646Z" fill="#F6F6F6"/>
<path d="M824.646 728V341.281H899.354V728H824.646Z" fill="#F6F6F6"/>
<path d="M1020.44 487.516C992.461 487.516 969.902 478.8 952.764 461.368C935.771 443.937 927.275 419.547 927.275 388.199V209.781C927.275 172.281 934.673 143.57 949.468 123.648C964.409 103.727 988.652 93.7656 1022.2 93.7656C1040.51 93.7656 1056.77 97.1348 1070.98 103.873C1085.33 110.611 1096.61 120.719 1104.81 134.195C1113.02 147.525 1117.12 164.371 1117.12 184.732V251.529H1040.21V194.4C1040.21 182.828 1038.75 175.064 1035.82 171.109C1032.89 167.008 1028.35 164.957 1022.2 164.957C1015.02 164.957 1010.19 167.594 1007.7 172.867C1005.21 177.994 1003.96 184.879 1003.96 193.521V387.101C1003.96 397.794 1005.5 405.338 1008.57 409.732C1011.8 414.127 1016.34 416.324 1022.2 416.324C1028.79 416.324 1033.4 413.614 1036.04 408.194C1038.82 402.774 1040.21 395.743 1040.21 387.101V317.447H1118V390.616C1118 424.601 1109.43 449.283 1092.29 464.664C1075.15 479.898 1051.2 487.516 1020.44 487.516Z" fill="#F6F6F6"/>
<path d="M1020.44 84.5156C992.461 84.5156 969.902 75.7998 952.764 58.3682C935.771 40.9365 927.275 16.5469 927.275 -14.8008V-193.219C927.275 -230.719 934.673 -259.43 949.468 -279.352C964.409 -299.273 988.652 -309.234 1022.2 -309.234C1040.51 -309.234 1056.77 -305.865 1070.98 -299.127C1085.33 -292.389 1096.61 -282.281 1104.81 -268.805C1113.02 -255.475 1117.12 -238.629 1117.12 -218.268V-151.471H1040.21V-208.6C1040.21 -220.172 1038.75 -227.936 1035.82 -231.891C1032.89 -235.992 1028.35 -238.043 1022.2 -238.043C1015.02 -238.043 1010.19 -235.406 1007.7 -230.133C1005.21 -225.006 1003.96 -218.121 1003.96 -209.479V-15.8994C1003.96 -5.20605 1005.5 2.33789 1008.57 6.73242C1011.8 11.127 1016.34 13.3242 1022.2 13.3242C1028.79 13.3242 1033.4 10.6143 1036.04 5.19434C1038.82 -0.225586 1040.21 -7.25684 1040.21 -15.8994V-85.5527H1118V-12.3838C1118 21.6006 1109.43 46.2832 1092.29 61.6641C1075.15 76.8984 1051.2 84.5156 1020.44 84.5156Z" fill="#F6F6F6"/>
<path d="M1144.41 325V-61.7188H1299.1V12.9883H1223.08V88.3545H1296.03V161.084H1223.08V249.634H1304.16V325H1144.41Z" fill="#F6F6F6"/>
<path d="M1144.41 728V341.281H1299.1V415.988H1223.08V491.354H1296.03V564.084H1223.08V652.634H1304.16V728H1144.41Z" fill="#F6F6F6"/>
<path d="M1422.05 482.516C1386.75 482.516 1361.26 473.727 1345.59 456.148C1330.06 438.57 1322.3 410.592 1322.3 372.213V334.42H1398.76V382.76C1398.76 391.695 1400.08 398.727 1402.72 403.854C1405.5 408.834 1410.26 411.324 1417 411.324C1424.03 411.324 1428.87 409.273 1431.5 405.172C1434.29 401.07 1435.68 394.332 1435.68 384.957C1435.68 373.092 1434.5 363.204 1432.16 355.294C1429.82 347.237 1425.72 339.62 1419.86 332.442C1414.14 325.118 1406.16 316.622 1395.91 306.954L1361.19 273.995C1335.26 249.532 1322.3 221.554 1322.3 190.06C1322.3 157.101 1329.92 131.979 1345.15 114.693C1360.53 97.4082 1382.72 88.7656 1411.73 88.7656C1447.18 88.7656 1472.3 98.2139 1487.09 117.11C1502.03 136.007 1509.5 164.718 1509.5 203.243H1430.84V176.656C1430.84 171.383 1429.3 167.281 1426.23 164.352C1423.3 161.422 1419.27 159.957 1414.14 159.957C1407.99 159.957 1403.45 161.715 1400.52 165.23C1397.74 168.6 1396.35 172.994 1396.35 178.414C1396.35 183.834 1397.81 189.693 1400.74 195.992C1403.67 202.291 1409.46 209.542 1418.1 217.745L1462.7 260.592C1471.64 269.088 1479.84 278.097 1487.31 287.618C1494.78 296.993 1500.79 307.979 1505.33 320.577C1509.87 333.028 1512.14 348.263 1512.14 366.28C1512.14 402.608 1505.4 431.1 1491.93 451.754C1478.6 472.262 1455.31 482.516 1422.05 482.516Z" fill="#F6F6F6"/>
<path d="M1422.05 79.5156C1386.75 79.5156 1361.26 70.7266 1345.59 53.1484C1330.06 35.5703 1322.3 7.5918 1322.3 -30.7871V-68.5801H1398.76V-20.2402C1398.76 -11.3047 1400.08 -4.27344 1402.72 0.853516C1405.5 5.83398 1410.26 8.32422 1417 8.32422C1424.03 8.32422 1428.87 6.27344 1431.5 2.17188C1434.29 -1.92969 1435.68 -8.66797 1435.68 -18.043C1435.68 -29.9082 1434.5 -39.7959 1432.16 -47.7061C1429.82 -55.7627 1425.72 -63.3799 1419.86 -70.5576C1414.14 -77.8818 1406.16 -86.3779 1395.91 -96.0459L1361.19 -129.005C1335.26 -153.468 1322.3 -181.446 1322.3 -212.94C1322.3 -245.899 1329.92 -271.021 1345.15 -288.307C1360.53 -305.592 1382.72 -314.234 1411.73 -314.234C1447.18 -314.234 1472.3 -304.786 1487.09 -285.89C1502.03 -266.993 1509.5 -238.282 1509.5 -199.757H1430.84V-226.344C1430.84 -231.617 1429.3 -235.719 1426.23 -238.648C1423.3 -241.578 1419.27 -243.043 1414.14 -243.043C1407.99 -243.043 1403.45 -241.285 1400.52 -237.77C1397.74 -234.4 1396.35 -230.006 1396.35 -224.586C1396.35 -219.166 1397.81 -213.307 1400.74 -207.008C1403.67 -200.709 1409.46 -193.458 1418.1 -185.255L1462.7 -142.408C1471.64 -133.912 1479.84 -124.903 1487.31 -115.382C1494.78 -106.007 1500.79 -95.0205 1505.33 -82.4229C1509.87 -69.9717 1512.14 -54.7373 1512.14 -36.7197C1512.14 -0.391602 1505.4 28.0996 1491.93 48.7539C1478.6 69.2617 1455.31 79.5156 1422.05 79.5156Z" fill="#F6F6F6"/>
</g>
<defs>
<clipPath id="clip0_108_835">
<rect width="1512" height="392" fill="white"/>
</clipPath>
</defs>
</svg>
