<svg width="41" height="31" viewBox="0 0 41 31" fill="none" xmlns="http://www.w3.org/2000/svg">
<path d="M40.1935 0V19.8725C40.1935 25.9152 35.2957 30.813 29.253 30.813H0V26.3303C12.0889 24.9678 21.5932 21.764 25.4532 17.7299C26.2266 18.9418 26.7957 20.2943 27.1137 21.7439C27.3481 20.6625 28.0846 17.9944 30.4649 15.6107C32.8485 13.2271 35.5167 12.4906 36.5947 12.2562C35.5167 12.0186 32.8485 11.2854 30.4649 8.90176C28.0846 6.51814 27.3481 3.84995 27.1137 2.77197C26.866 3.88008 26.0625 6.75248 23.4445 9.19972C21.1915 11.2988 18.7476 12.0085 17.6261 12.2562C19.0121 13.0128 20.8935 13.7326 23.093 13.736C24.1208 13.7393 26.26 13.7393 26.9664 12.5475C26.4341 13.6088 25.3193 14.6231 23.709 15.5639C19.1259 18.2421 10.5455 20.3311 0.00334779 21.2953V0H40.1969H40.1935Z" fill="#F6F6F6"/>
</svg>
