<svg width="55" height="62" viewBox="0 0 55 62" fill="none" xmlns="http://www.w3.org/2000/svg">
<path d="M53.2174 52.1108C52.0386 52.1691 49.0944 52.475 46.1625 54.5224C43.3749 56.4681 42.1112 58.9302 41.6172 60.0887C41.511 58.9979 41.2714 57.9381 40.9123 56.9235C40.9051 56.9009 40.8953 56.8779 40.8879 56.8566C40.7728 56.516 40.6442 56.1813 40.5018 55.8552L40.4846 55.8672C40.0822 54.9759 39.5849 54.1325 38.9964 53.3538C39.0123 53.3496 39.023 53.3433 39.0389 53.3391C40.9036 52.6417 42.2544 51.7908 43.0066 50.7904C42.0478 51.8946 39.7916 51.5334 38.7089 51.3534C37.898 51.2196 37.1433 51.0075 36.4497 50.7367C35.1588 50.2442 34.0704 49.568 33.2075 48.9104C33.2616 48.9083 33.3175 48.9038 33.3763 48.8985C34.6716 48.8119 37.2556 48.4523 39.8839 46.7523C43.0801 44.6747 44.4346 41.8607 44.8939 40.7677C44.9511 41.9111 45.2569 44.7761 47.3471 47.6275C49.4374 50.4789 52.1223 51.6818 53.2174 52.1108Z" fill="#F6F6F6"/>
<g clip-path="url(#clip0_108_802)">
<path d="M39.4919 20.3728C37.2747 20.8582 31.7891 22.3856 26.8945 27.3318C22.2405 32.0327 20.6455 37.2691 20.086 39.7014C19.5291 37.591 18.729 35.5835 17.7171 33.7026C17.6962 33.6604 17.6701 33.6182 17.6492 33.5786C17.3197 32.9455 16.9667 32.3282 16.5902 31.732L16.5615 31.761C15.5078 30.136 14.2893 28.635 12.9193 27.2896C12.948 27.2765 12.9663 27.2606 12.9951 27.2474C16.3052 25.29 18.5904 23.1928 19.6912 20.9901C18.2322 23.4619 13.8344 23.4619 11.7218 23.4487C10.1399 23.4408 8.6391 23.2614 7.23503 22.9475C4.62562 22.3856 2.34042 21.399 0.489258 20.3781C0.591229 20.357 0.695815 20.3306 0.805629 20.3016C3.23463 19.7239 8.01943 18.2044 12.4512 14.0364C17.8374 8.94772 19.4899 2.99114 20.0049 0.69873C20.486 2.92783 21.9999 8.46233 26.8945 13.4086C31.7891 18.3548 37.2747 19.8743 39.4919 20.3728Z" fill="#F6F6F6"/>
</g>
<defs>
<clipPath id="clip0_108_802">
<rect width="39" height="39" fill="white" transform="translate(0.492188 0.69873)"/>
</clipPath>
</defs>
</svg>
