<svg width="639" height="431" viewBox="0 0 639 431" fill="none" xmlns="http://www.w3.org/2000/svg">
<g clip-path="url(#clip0_1276_791)">
<path d="M637.981 -80V235.43C637.981 331.345 560.239 409.087 464.324 409.087H0V337.934C191.883 316.307 342.743 265.453 404.012 201.421C416.287 220.658 425.32 242.125 430.369 265.134C434.088 247.971 445.779 205.619 483.56 167.785C521.395 129.95 563.746 118.26 580.857 114.54C563.746 110.767 521.395 99.1298 483.56 61.2952C445.779 23.4606 434.088 -18.8908 430.369 -36.0013C426.436 -18.4125 413.683 27.1803 372.129 66.0245C336.367 99.3424 297.576 110.608 279.774 114.54C301.774 126.549 331.637 137.974 366.549 138.027C382.863 138.08 416.818 138.08 428.031 119.163C419.582 136.008 401.886 152.109 376.327 167.041C303.58 209.552 167.386 242.71 0.0531385 258.014V-80H638.034H637.981Z" fill="#D6D6D6"/>
</g>
<defs>
<clipPath id="clip0_1276_791">
<rect width="3110.62" height="511" fill="white" transform="translate(0 -80)"/>
</clipPath>
</defs>
</svg>
