<svg width="27" height="27" viewBox="0 0 27 27" fill="none" xmlns="http://www.w3.org/2000/svg">
<path d="M6.75882 19.5809L11.1879 15.1518L14.0922 18.0561L19.2473 12.9373V15.2245H22.1516V7.96373H14.8908V10.868H17.178L14.0922 13.9538L11.1879 11.0495L4.72582 17.5479L6.75882 19.5809ZM3.27368 26.8416C2.475 26.8416 1.79128 26.5572 1.22252 25.9885C0.653763 25.4197 0.369385 24.736 0.369385 23.9373V3.60729C0.369385 2.80861 0.653763 2.1249 1.22252 1.55614C1.79128 0.987381 2.475 0.703003 3.27368 0.703003H23.6037C24.4024 0.703003 25.0861 0.987381 25.6549 1.55614C26.2236 2.1249 26.508 2.80861 26.508 3.60729V23.9373C26.508 24.736 26.2236 25.4197 25.6549 25.9885C25.0861 26.5572 24.4024 26.8416 23.6037 26.8416H3.27368ZM3.27368 23.9373H23.6037V3.60729H3.27368V23.9373Z" fill="#9400FF"/>
</svg>
