<svg width="25" height="33" viewBox="0 0 25 33" fill="none" xmlns="http://www.w3.org/2000/svg">
<path fill-rule="evenodd" clip-rule="evenodd" d="M3.45355 20.6766V32.245L12.4387 29.25L21.4238 32.245V20.6766C22.3723 19.6284 23.1086 18.4304 23.6327 17.0826C24.1568 15.7348 24.4189 14.2997 24.4189 12.7772C24.4189 9.43272 23.2583 6.59991 20.9371 4.27874C18.616 1.95758 15.7832 0.796997 12.4387 0.796997C9.09422 0.796997 6.2614 1.95758 3.94024 4.27874C1.61908 6.59991 0.458496 9.43272 0.458496 12.7772C0.458496 14.2997 0.720563 15.7348 1.2447 17.0826C1.76883 18.4304 2.50511 19.6284 3.45355 20.6766ZM18.8032 19.1417C17.0561 20.8888 14.9346 21.7623 12.4387 21.7623C9.94282 21.7623 7.82133 20.8888 6.07421 19.1417C4.3271 17.3946 3.45355 15.2731 3.45355 12.7772C3.45355 10.2813 4.3271 8.15983 6.07421 6.41271C7.82133 4.6656 9.94282 3.79205 12.4387 3.79205C14.9346 3.79205 17.0561 4.6656 18.8032 6.41271C20.5503 8.15983 21.4238 10.2813 21.4238 12.7772C21.4238 15.2731 20.5503 17.3946 18.8032 19.1417ZM12.4387 26.2549L6.4486 27.7899V23.1476C7.32215 23.6467 8.26434 24.0398 9.27517 24.3269C10.286 24.6139 11.3405 24.7574 12.4387 24.7574C13.5369 24.7574 14.5914 24.6139 15.6022 24.3269C16.613 24.0398 17.5552 23.6467 18.4288 23.1476V27.7899L12.4387 26.2549Z" fill="#9400FF"/>
</svg>
