<svg width="24" height="29" viewBox="0 0 24 29" fill="none" xmlns="http://www.w3.org/2000/svg">
<path d="M3.3316 24.69L6.10996 23.5645C5.8755 22.8846 5.65862 22.1929 5.45933 21.4896C5.26004 20.7862 5.10178 20.0828 4.98455 19.3794L3.3316 20.5048V24.69ZM8.95866 23.2129H14.5857C15.0078 22.275 15.3477 21.132 15.6056 19.7839C15.8635 18.4357 15.9925 17.0583 15.9925 15.6515C15.9925 13.3303 15.6056 11.1323 14.8319 9.05727C14.0582 6.9823 13.0383 5.3821 11.7722 4.25669C10.5061 5.3821 9.4862 6.9823 8.71248 9.05727C7.93876 11.1323 7.55189 13.3303 7.55189 15.6515C7.55189 17.0583 7.68085 18.4357 7.93876 19.7839C8.19666 21.132 8.53663 22.275 8.95866 23.2129ZM11.7722 16.179C10.9985 16.179 10.3361 15.9035 9.78513 15.3526C9.23415 14.8016 8.95866 14.1392 8.95866 13.3655C8.95866 12.5918 9.23415 11.9294 9.78513 11.3784C10.3361 10.8275 10.9985 10.552 11.7722 10.552C12.5459 10.552 13.2083 10.8275 13.7592 11.3784C14.3102 11.9294 14.5857 12.5918 14.5857 13.3655C14.5857 14.1392 14.3102 14.8016 13.7592 15.3526C13.2083 15.9035 12.5459 16.179 11.7722 16.179ZM20.2128 24.69V20.5048L18.5598 19.3794C18.4426 20.0828 18.2843 20.7862 18.0851 21.4896C17.8858 22.1929 17.6689 22.8846 17.4344 23.5645L20.2128 24.69ZM11.7722 0.669434C14.0934 2.35755 15.846 4.50287 17.03 7.10539C18.214 9.7079 18.806 12.7324 18.806 16.179L21.7602 18.1485C22.1588 18.4064 22.4695 18.7464 22.6922 19.1684C22.9149 19.5904 23.0263 20.0359 23.0263 20.5048V28.8399L16.0277 26.0264H7.51673L0.518066 28.8399V20.5048C0.518066 20.0359 0.629435 19.5904 0.852173 19.1684C1.07491 18.7464 1.38557 18.4064 1.78416 18.1485L4.73836 16.179C4.73836 12.7324 5.33038 9.7079 6.5144 7.10539C7.69843 4.50287 9.45103 2.35755 11.7722 0.669434Z" fill="#9400FF"/>
</svg>
