<svg width="97" height="96" viewBox="0 0 97 96" fill="none" xmlns="http://www.w3.org/2000/svg">
<path fill-rule="evenodd" clip-rule="evenodd" d="M48.4478 95.91C74.9326 95.91 96.4028 74.4398 96.4028 47.955C96.4028 21.4702 74.9326 0 48.4478 0C21.963 0 0.492798 21.4702 0.492798 47.955C0.492798 74.4398 21.963 95.91 48.4478 95.91Z" fill="#5454D4" fill-opacity="0.1"/>
<path d="M37.7994 45.1318C38.6249 45.1319 39.3748 45.4691 39.9176 46.0117C40.4605 46.5546 40.7984 47.3051 40.7985 48.1309V65.2393C40.7985 66.0652 40.4605 66.8155 39.9176 67.3584C39.3748 67.9012 38.6251 68.2392 37.7994 68.2393H28.7467C27.9209 68.2392 27.1704 67.9013 26.6276 67.3584C26.0849 66.8156 25.7477 66.065 25.7477 65.2393V48.1309C25.7477 47.3051 26.0847 46.5546 26.6276 46.0117C27.1704 45.4688 27.9209 45.1319 28.7467 45.1318H37.7994ZM28.7467 46.7852C28.3778 46.7852 28.0412 46.936 27.7965 47.1807C27.5518 47.4253 27.401 47.762 27.401 48.1309V65.2393C27.401 65.608 27.552 65.9448 27.7965 66.1895C28.0412 66.4342 28.3778 66.5859 28.7467 66.5859H37.7994C38.1682 66.5858 38.504 66.4341 38.7487 66.1895C38.9934 65.9448 39.1451 65.6082 39.1451 65.2393V48.1309C39.1451 47.762 38.9934 47.4253 38.7487 47.1807C38.5041 46.9362 38.1681 46.7852 37.7994 46.7852H28.7467Z" fill="#5454D4" stroke="#5454D4" stroke-width="0.25"/>
<path d="M49.387 28.1602C50.4121 28.1258 51.6888 28.2771 52.8519 28.9746C55.1776 30.3694 56.9702 33.8919 55.5364 42.1777C57.7027 41.9662 62.6069 41.6397 66.3079 42.54C68.2025 43.001 69.8166 43.7914 70.5657 45.1182C71.3141 46.4439 71.1728 48.2549 69.6995 50.6973C70.0635 51.2697 70.6023 52.2973 70.6507 53.4395C70.6759 54.0353 70.568 54.6638 70.2318 55.2725C69.9056 55.8626 69.3669 56.4252 68.5433 56.9238C68.6884 57.571 68.8426 58.6083 68.6653 59.665C68.4821 60.7575 67.9433 61.8744 66.68 62.5938C66.6288 63.3813 66.4315 64.9333 65.6575 66.2354C65.2581 66.9073 64.703 67.516 63.9339 67.917C63.1658 68.3173 62.1929 68.5054 60.9651 68.3516H43.7405C43.5812 68.3516 43.4323 68.3058 43.306 68.2275L39.556 66.166C39.1565 65.9466 39.0105 65.4444 39.2298 65.0449C39.4492 64.6454 39.9514 64.4994 40.3509 64.7188L43.9505 66.6982H60.9818C61.0264 66.6977 61.0692 66.703 61.1058 66.708C62.0625 66.8382 62.7778 66.6518 63.3167 66.3008C63.8579 65.9482 64.2328 65.4212 64.4915 64.8516C65.0102 63.7092 65.0501 62.4245 65.0521 62.1396C65.0257 61.7959 65.2187 61.4602 65.5521 61.3174C66.7215 60.8162 67.064 59.7792 67.097 58.8037C67.13 57.8261 66.849 56.9387 66.803 56.8008V56.7998C66.6572 56.4051 66.8344 55.9587 67.2191 55.7715C67.9992 55.392 68.4501 54.943 68.6917 54.4863C68.9332 54.0297 68.9725 53.5526 68.9075 53.1055C68.7766 52.2047 68.2254 51.4437 68.096 51.2754V51.2744C67.8536 51.0023 67.8147 50.5935 68.0228 50.2744C68.7397 49.1748 69.0789 48.2587 69.1341 47.498C69.1889 46.7419 68.9638 46.1322 68.5355 45.6367C68.1041 45.1378 67.4617 44.7485 66.6751 44.4502C65.8893 44.1522 64.9677 43.9475 63.9876 43.8125C60.0629 43.2721 55.2667 43.8556 54.6888 43.9297L54.6878 43.9287C54.5839 43.9498 54.4747 43.9523 54.3646 43.9307C53.9166 43.8422 53.6258 43.4076 53.7142 42.96C55.0616 36.132 54.1695 32.8019 52.7493 31.2188C51.3855 29.6986 49.4962 29.7499 48.5003 29.9121C49.1716 36.7547 47.1246 41.3011 44.89 44.1426C43.7674 45.5699 42.5991 46.5655 41.7093 47.2051C41.2643 47.5249 40.8883 47.7564 40.6224 47.9082C40.4896 47.984 40.3839 48.0396 40.3109 48.0771C40.2743 48.0959 40.2456 48.1105 40.2259 48.1201L40.1956 48.1348C39.7853 48.331 39.2933 48.1574 39.097 47.7471C38.9008 47.3367 39.0743 46.8447 39.4847 46.6484C39.5211 46.6314 41.7351 45.5948 43.7464 42.9414C45.77 40.2716 47.5954 35.9561 46.7796 29.373C46.7276 28.9532 46.9999 28.5678 47.4007 28.4688C47.5952 28.41 48.3723 28.1942 49.387 28.1602Z" fill="#5454D4" stroke="#5454D4" stroke-width="0.25"/>
</svg>
