<svg width="97" height="96" viewBox="0 0 97 96" fill="none" xmlns="http://www.w3.org/2000/svg">
<path fill-rule="evenodd" clip-rule="evenodd" d="M48.4478 95.91C74.9326 95.91 96.4028 74.4398 96.4028 47.955C96.4028 21.4702 74.9326 0 48.4478 0C21.963 0 0.492798 21.4702 0.492798 47.955C0.492798 74.4398 21.963 95.91 48.4478 95.91Z" fill="#5AFE8E" fill-opacity="0.1"/>
<path d="M43.5827 49.1133C42.3595 49.7249 41.3402 50.633 40.5803 51.7635C40.1541 52.4122 40.1541 53.2277 40.5803 53.8763C41.3402 55.0069 42.3595 55.915 43.5827 56.5266" stroke="#5AFE8E" stroke-width="2" stroke-linecap="round" stroke-linejoin="round"/>
<path d="M55.0919 49.1133C56.3151 49.7249 57.3345 50.633 58.0943 51.7635C58.5206 52.4122 58.5206 53.2277 58.0943 53.8763C57.3345 55.0069 56.3151 55.915 55.0919 56.5266" stroke="#5AFE8E" stroke-width="2" stroke-linecap="round" stroke-linejoin="round"/>
<path d="M43.5827 65.7932H54.7027C63.9694 65.7932 67.676 62.0866 67.676 52.8199V41.6999C67.676 32.4332 63.9694 28.7266 54.7027 28.7266H43.5827C34.316 28.7266 30.6094 32.4332 30.6094 41.6999V52.8199C30.6094 62.0866 34.316 65.7932 43.5827 65.7932Z" stroke="#5AFE8E" stroke-width="2" stroke-linecap="round" stroke-linejoin="round"/>
<path d="M31.0356 39.8652L66.6567 39.8467" stroke="#5AFE8E" stroke-width="2" stroke-linecap="round" stroke-linejoin="round"/>
</svg>
