<svg width="97" height="96" viewBox="0 0 97 96" fill="none" xmlns="http://www.w3.org/2000/svg">
<path fill-rule="evenodd" clip-rule="evenodd" d="M48.4478 95.91C74.9326 95.91 96.4028 74.4398 96.4028 47.955C96.4028 21.4702 74.9326 0 48.4478 0C21.963 0 0.492798 21.4702 0.492798 47.955C0.492798 74.4398 21.963 95.91 48.4478 95.91Z" fill="#FEDC5A" fill-opacity="0.1"/>
<path d="M70.1712 51.4487C70.1112 51.2232 69.9626 51.029 69.7587 50.9115L67.4781 49.5949C67.7539 48.4415 67.893 47.2568 67.893 46.0625C67.893 44.8683 67.7539 43.6812 67.4781 42.5301L69.7587 41.2136C70.1808 40.969 70.3271 40.4295 70.0825 40.0049L66.6483 34.0576C66.5308 33.8538 66.339 33.7075 66.1112 33.6452C65.8857 33.5852 65.6435 33.6164 65.4397 33.7339L63.1567 35.0528C61.418 33.4053 59.3269 32.1967 57.0415 31.518V28.8849C57.0415 28.3957 56.6458 28 56.1566 28H49.2881C48.7989 28 48.4032 28.3957 48.4032 28.8849V31.518C46.1178 32.1967 44.0243 33.4053 42.2881 35.0528L40.0051 33.7339C39.8013 33.6164 39.5614 33.5852 39.3336 33.6452C39.1082 33.7051 38.9139 33.8538 38.7964 34.0576L35.3623 40.0049C35.2448 40.2088 35.2136 40.4486 35.2736 40.6764C35.3335 40.9019 35.4822 41.0961 35.6861 41.2136L37.8467 42.4606C35.463 44.3431 33.9282 47.2568 33.9282 50.5207C33.9282 52.3912 34.4342 54.1466 35.3119 55.6574L26.6883 63.4535C26.0888 63.9955 25.8658 64.7988 26.0792 65.6525C26.4077 66.9715 27.7483 68.312 29.0672 68.6406C29.2806 68.6933 29.4917 68.7197 29.6955 68.7197C30.307 68.7197 30.8609 68.4823 31.2686 68.0315L39.0623 59.4078C40.5755 60.2855 42.3285 60.7915 44.199 60.7915C45.3213 60.7915 46.4028 60.6069 47.4149 60.2735C47.741 60.3958 48.0696 60.5085 48.4005 60.6069V63.24C48.4005 63.7292 48.7962 64.1249 49.2854 64.1249H56.1539C56.6431 64.1249 57.0388 63.7292 57.0388 63.24V60.6069C59.3242 59.9282 61.4177 58.7196 63.1539 57.0721L65.4369 58.391C65.6408 58.5085 65.8806 58.5397 66.1084 58.4797C66.3339 58.4198 66.5281 58.2711 66.6456 58.0673L70.0797 52.12C70.1996 51.9161 70.2311 51.6741 70.1712 51.4487ZM29.9574 66.8469C29.9118 66.8972 29.8159 67.0051 29.4969 66.926C28.8111 66.7533 27.9669 65.9116 27.7943 65.2234C27.7152 64.9068 27.8207 64.8109 27.8734 64.7653L33.1637 59.9835L34.7368 61.5566L29.9574 66.8469ZM35.9263 60.2424L34.4802 58.7963L36.3387 57.1176C36.7248 57.5756 37.1492 58.0001 37.6073 58.3862L35.9263 60.2424ZM35.6985 50.5204C35.6985 45.8321 39.5114 42.0189 44.1999 42.0189C48.8885 42.0189 52.7014 45.8319 52.7014 50.5204C52.7014 55.2089 48.8885 59.0219 44.1999 59.0219C39.5141 59.0243 35.6985 55.2089 35.6985 50.5204ZM47.943 40.9593C49.2284 39.7603 50.9406 39.0672 52.7224 39.0672C56.5785 39.0672 59.7155 42.204 59.7155 46.0603C59.7155 49.4393 57.3726 52.2332 54.1903 52.9C54.3725 52.135 54.4709 51.3388 54.4709 50.521C54.4709 46.1781 51.761 42.461 47.9431 40.9599L47.943 40.9593ZM65.5592 56.4177L63.4561 55.2042C63.1036 55.0004 62.6599 55.0627 62.3769 55.3577C60.6167 57.1851 58.3937 58.4704 55.945 59.0748C55.5493 59.1731 55.2735 59.5256 55.2735 59.9333V62.3577H50.1727V59.9333C50.1727 59.6119 49.9976 59.3265 49.7315 59.1707C51.3861 58.1083 52.7171 56.5855 53.542 54.7845C58.0384 54.3745 61.4848 50.6478 61.4848 46.0627C61.4848 41.2329 57.5544 37.3021 52.7243 37.3021C50.1463 37.3021 47.6835 38.458 46.0265 40.4172C45.4342 40.3117 44.8251 40.2518 44.2015 40.2518C42.5132 40.2518 40.9185 40.6642 39.5132 41.3885C39.4892 41.3693 39.4653 41.3501 39.4365 41.3357L37.3381 40.1247L39.8873 35.7074L41.9904 36.9208C42.3429 37.1247 42.7866 37.0623 43.0696 36.7674C44.8298 34.94 47.0528 33.6546 49.5015 33.0503C49.8972 32.952 50.173 32.5994 50.173 32.1918V29.7673H55.2738V32.1918C55.2738 32.5995 55.552 32.952 55.9453 33.0503C58.3938 33.6546 60.6192 34.94 62.3773 36.7674C62.6603 37.0599 63.1039 37.1223 63.4564 36.9208L65.5596 35.7074L68.1087 40.1247L66.0104 41.3357C65.6578 41.5396 65.49 41.9568 65.6027 42.3453C65.9504 43.5467 66.1255 44.7986 66.1255 46.0624C66.1255 47.3262 65.9504 48.5756 65.6027 49.7795C65.49 50.1679 65.6578 50.5852 66.0104 50.789L68.1087 52.0001L65.5592 56.4177ZM44.2018 43.4101C40.2809 43.4101 37.0914 46.5995 37.0914 50.5204C37.0914 54.4413 40.2809 57.6308 44.2018 57.6308C48.1227 57.6308 51.3121 54.4413 51.3121 50.5204C51.3121 46.5995 48.1227 43.4101 44.2018 43.4101ZM44.2018 55.8633C41.2545 55.8633 38.8588 53.4652 38.8588 50.5204C38.8588 47.5731 41.2569 45.1774 44.2018 45.1774C47.1491 45.1774 49.5447 47.5755 49.5447 50.5204C49.5447 53.4676 47.1467 55.8633 44.2018 55.8633Z" fill="#FEDC5A"/>
</svg>
