<svg width="97" height="96" viewBox="0 0 97 96" fill="none" xmlns="http://www.w3.org/2000/svg">
<path fill-rule="evenodd" clip-rule="evenodd" d="M48.4478 95.91C74.9326 95.91 96.4028 74.4398 96.4028 47.955C96.4028 21.4702 74.9326 0 48.4478 0C21.963 0 0.492798 21.4702 0.492798 47.955C0.492798 74.4398 21.963 95.91 48.4478 95.91Z" fill="#FEDC5A" fill-opacity="0.1"/>
<path d="M59.1507 60.6958H39.1347C36.3547 60.6958 35.2427 59.5096 35.2427 56.5628V54.6354C35.2427 51.6886 36.3547 50.5024 39.1347 50.5024H59.1507C61.9307 50.5024 63.0427 51.6886 63.0427 54.6354V56.5628C63.0427 59.5096 61.9307 60.6958 59.1507 60.6958Z" stroke="#FEDC5A" stroke-width="2" stroke-linecap="round" stroke-linejoin="round"/>
<path d="M55.4441 44.9428H42.8415C40.0615 44.9428 38.9495 43.7567 38.9495 40.8099V38.8824C38.9495 35.9356 40.0615 34.7495 42.8415 34.7495H55.4441C58.2241 34.7495 59.3361 35.9356 59.3361 38.8824V40.8099C59.3361 43.7567 58.2241 44.9428 55.4441 44.9428Z" stroke="#FEDC5A" stroke-width="2" stroke-linecap="round" stroke-linejoin="round"/>
<path d="M49.1428 65.7932V61.3452" stroke="#FEDC5A" stroke-width="2" stroke-linecap="round" stroke-linejoin="round"/>
<path d="M49.1428 49.1129V45.4062" stroke="#FEDC5A" stroke-width="2" stroke-linecap="round" stroke-linejoin="round"/>
<path d="M49.1428 28.7261V33.7115" stroke="#FEDC5A" stroke-width="2" stroke-linecap="round" stroke-linejoin="round"/>
</svg>
