<svg width="97" height="97" viewBox="0 0 97 97" fill="none" xmlns="http://www.w3.org/2000/svg">
<path fill-rule="evenodd" clip-rule="evenodd" d="M48.4478 96.8202C74.9326 96.8202 96.4028 75.35 96.4028 48.8652C96.4028 22.3803 74.9326 0.910156 48.4478 0.910156C21.963 0.910156 0.492798 22.3803 0.492798 48.8652C0.492798 75.35 21.963 96.8202 48.4478 96.8202Z" fill="#F04037" fill-opacity="0.1"/>
<path d="M51.0144 31.3418L61.9491 36.1975C65.0998 37.5875 65.0998 39.8857 61.9491 41.2757L51.0144 46.1314C49.7727 46.6874 47.734 46.6874 46.4923 46.1314L35.5576 41.2757C32.407 39.8857 32.407 37.5875 35.5576 36.1975L46.4923 31.3418C47.734 30.7858 49.7727 30.7858 51.0144 31.3418Z" stroke="#F04037" stroke-width="2" stroke-linecap="round" stroke-linejoin="round"/>
<path d="M32.4626 46.3169C32.4626 47.8737 33.6302 49.6714 35.0572 50.3016L47.6414 55.8986C48.6051 56.3249 49.6986 56.3249 50.6438 55.8986L63.2279 50.3016C64.655 49.6714 65.8226 47.8737 65.8226 46.3169" stroke="#F04037" stroke-width="2" stroke-linecap="round" stroke-linejoin="round"/>
<path d="M32.4626 55.5835C32.4626 57.3071 33.4819 58.8639 35.0572 59.5682L47.6414 65.1652C48.6051 65.5915 49.6986 65.5915 50.6438 65.1652L63.2279 59.5682C64.8032 58.8639 65.8226 57.3071 65.8226 55.5835" stroke="#F04037" stroke-width="2" stroke-linecap="round" stroke-linejoin="round"/>
</svg>
