<svg width="97" height="97" viewBox="0 0 97 97" fill="none" xmlns="http://www.w3.org/2000/svg">
<path fill-rule="evenodd" clip-rule="evenodd" d="M48.4478 96.8202C74.9326 96.8202 96.4028 75.35 96.4028 48.8652C96.4028 22.3803 74.9326 0.910156 48.4478 0.910156C21.963 0.910156 0.492798 22.3803 0.492798 48.8652C0.492798 75.35 21.963 96.8202 48.4478 96.8202Z" fill="#5454D4" fill-opacity="0.1"/>
<path d="M39.4311 66.7029H58.8541C63.9693 66.7029 66.0079 63.5708 66.2489 59.7529L67.2126 44.4444C67.4721 40.4412 64.2843 37.0496 60.2626 37.0496C59.1321 37.0496 58.0942 36.4009 57.5753 35.4001L56.2409 32.7128C55.3883 31.0262 53.1643 29.6362 51.2739 29.6362H47.0298C45.1209 29.6362 42.8969 31.0262 42.0443 32.7128L40.7099 35.4001C40.191 36.4009 39.1531 37.0496 38.0226 37.0496C34.0009 37.0496 30.8131 40.4412 31.0726 44.4444L32.0363 59.7529C32.2587 63.5708 34.3159 66.7029 39.4311 66.7029Z" stroke="#5454D4" stroke-width="2" stroke-linecap="round" stroke-linejoin="round"/>
<path d="M46.3626 40.7563H51.9226" stroke="#5454D4" stroke-width="2" stroke-linecap="round" stroke-linejoin="round"/>
<path d="M49.1426 59.2898C52.4601 59.2898 55.1659 56.584 55.1659 53.2665C55.1659 49.949 52.4601 47.2432 49.1426 47.2432C45.8251 47.2432 43.1193 49.949 43.1193 53.2665C43.1193 56.584 45.8251 59.2898 49.1426 59.2898Z" stroke="#5454D4" stroke-width="2" stroke-linecap="round" stroke-linejoin="round"/>
</svg>
