<svg width="97" height="97" viewBox="0 0 97 97" fill="none" xmlns="http://www.w3.org/2000/svg">
<path fill-rule="evenodd" clip-rule="evenodd" d="M48.4478 96.8202C74.9326 96.8202 96.4028 75.35 96.4028 48.8652C96.4028 22.3803 74.9326 0.910156 48.4478 0.910156C21.963 0.910156 0.492798 22.3803 0.492798 48.8652C0.492798 75.35 21.963 96.8202 48.4478 96.8202Z" fill="#5AFE8E" fill-opacity="0.1"/>
<g clip-path="url(#clip0_1172_1399)">
<g clip-path="url(#clip1_1172_1399)">
<path d="M64.0561 52.7395C64.0561 52.3977 64.3359 52.1218 64.6826 52.1218C65.0292 52.1218 65.3091 52.3977 65.3091 52.7395V70.3566C65.3091 71.4932 64.8371 72.5269 64.077 73.2764L64.0644 73.2887C63.3043 74.03 62.2643 74.4912 61.1199 74.4912H36.6243C35.4715 74.4912 34.4232 74.0258 33.6631 73.2764L33.6505 73.264C32.8987 72.5145 32.431 71.4891 32.431 70.3608V28.9329C32.431 27.7963 32.9029 26.7627 33.6631 26.0132L33.6756 26.0008C34.4357 25.2596 35.4757 24.7983 36.6201 24.7983H61.1158C62.2685 24.7983 63.3168 25.2637 64.077 26.0132L64.0895 26.0255C64.8413 26.775 65.3091 27.8004 65.3091 28.9288V53.3656C65.3091 53.7074 65.0292 53.9833 64.6826 53.9833C64.3359 53.9833 64.0561 53.7074 64.0561 53.3656V28.9288C64.0561 28.1299 63.7261 27.4051 63.1915 26.878L63.1874 26.8739C62.6569 26.3509 61.9177 26.0214 61.1074 26.0214H36.6117C35.8015 26.0214 35.0664 26.3467 34.5318 26.8739L34.5276 26.878C33.9972 27.401 33.6631 28.1299 33.6631 28.9288V70.3566C33.6631 71.1555 33.993 71.8803 34.5276 72.4074L34.5318 72.4116C35.0622 72.9346 35.8015 73.264 36.6117 73.264H61.1074C61.9177 73.264 62.6528 72.9387 63.1874 72.4116L63.1915 72.4074C63.722 71.8844 64.0561 71.1555 64.0561 70.3566V52.7395Z" fill="#5AFE8E"/>
<path d="M60.6481 52.7394C60.6481 52.3976 60.9279 52.1217 61.2746 52.1217C61.6213 52.1217 61.9011 52.3976 61.9011 52.7394V63.6358C61.9011 63.9776 61.6213 64.2535 61.2746 64.2535H61.2579H36.4531C36.1065 64.2535 35.8267 63.9776 35.8267 63.6358V63.6194V29.7276C35.8267 29.3858 36.1065 29.1099 36.4531 29.1099H36.4699H61.2746C61.6213 29.1099 61.9011 29.3858 61.9011 29.7276V29.744V52.7479C61.9011 53.0897 61.6213 53.3656 61.2746 53.3656C60.9279 53.3656 60.6481 53.0897 60.6481 52.7479V30.3453H37.0755V63.0222H60.6481V52.7394Z" fill="#5AFE8E"/>
<path d="M48.866 65.8022C49.6763 65.8022 50.4113 66.1276 50.9418 66.6506C51.4722 67.1736 51.8022 67.8983 51.8022 68.6973C51.8022 69.4962 51.4722 70.2209 50.9418 70.7439C50.4113 71.2669 49.6763 71.5923 48.866 71.5923C48.0558 71.5923 47.3249 71.2669 46.7902 70.7439C46.2598 70.2209 45.9299 69.4962 45.9299 68.6973C45.9299 67.8983 46.2598 67.1736 46.7902 66.6506L46.8278 66.6176C47.3583 66.1152 48.0766 65.8064 48.866 65.8064V65.8022ZM50.0605 67.5195C49.7556 67.2189 49.3338 67.0336 48.866 67.0336C48.4108 67.0336 48.0015 67.2106 47.6966 67.4948L47.6715 67.5195C47.3666 67.8201 47.1787 68.236 47.1787 68.6973C47.1787 69.1544 47.3666 69.5744 47.6715 69.875C47.9764 70.1756 48.3982 70.361 48.866 70.361C49.3296 70.361 49.7556 70.1756 50.0605 69.875C50.3654 69.5744 50.5534 69.1585 50.5534 68.6973C50.5534 68.2401 50.3654 67.8201 50.0605 67.5195Z" fill="#5AFE8E"/>
<path d="M40.0074 45.0139C40.0074 45.3557 39.7275 45.6316 39.3809 45.6316C39.0342 45.6316 38.7544 45.3557 38.7544 45.0139V32.5938C38.7544 32.252 39.0342 31.9761 39.3809 31.9761H39.3976H39.5855H50.0479C50.3945 31.9761 50.6744 32.252 50.6744 32.5938C50.6744 32.9356 50.3945 33.2115 50.0479 33.2115H40.0074V45.018V45.0139Z" fill="#5AFE8E"/>
</g>
</g>
<defs>
<clipPath id="clip0_1172_1399">
<rect width="34" height="50" fill="white" transform="translate(31.8722 24.79)"/>
</clipPath>
<clipPath id="clip1_1172_1399">
<rect width="50.403" height="49.697" fill="white" transform="translate(29.3571 24.79)"/>
</clipPath>
</defs>
</svg>
