<svg width="97" height="97" viewBox="0 0 97 97" fill="none" xmlns="http://www.w3.org/2000/svg">
<path fill-rule="evenodd" clip-rule="evenodd" d="M48.4478 96.8202C74.9326 96.8202 96.4028 75.35 96.4028 48.8652C96.4028 22.3803 74.9326 0.910156 48.4478 0.910156C21.963 0.910156 0.492798 22.3803 0.492798 48.8652C0.492798 75.35 21.963 96.8202 48.4478 96.8202Z" fill="#F04037" fill-opacity="0.1"/>
<path d="M67.676 53.7305V42.6105C67.676 33.3439 63.9694 29.6372 54.7027 29.6372H43.5827C34.316 29.6372 30.6094 33.3439 30.6094 42.6105V53.7305C30.6094 62.9972 34.316 66.7039 43.5827 66.7039H54.7027C63.9694 66.7039 67.676 62.9972 67.676 53.7305Z" stroke="#F04037" stroke-width="2" stroke-linecap="round" stroke-linejoin="round"/>
<path d="M31.5731 39.1079H66.7123" stroke="#F04037" stroke-width="2" stroke-linecap="round" stroke-linejoin="round"/>
<path d="M42.6931 29.8413V38.8485" stroke="#F04037" stroke-width="2" stroke-linecap="round" stroke-linejoin="round"/>
<path d="M55.5923 29.8413V38.0145" stroke="#F04037" stroke-width="2" stroke-linecap="round" stroke-linejoin="round"/>
<path d="M44.9727 52.7114V50.4874C44.9727 47.6333 46.9928 46.4657 49.4577 47.8928L51.3852 49.0048L53.3127 50.1168C55.7776 51.5438 55.7776 53.879 53.3127 55.3061L51.3852 56.4181L49.4577 57.5301C46.9928 58.9572 44.9727 57.7896 44.9727 54.9354V52.7114V52.7114Z" stroke="#F04037" stroke-width="2" stroke-miterlimit="10" stroke-linecap="round" stroke-linejoin="round"/>
</svg>
